<svg width="447" height="76" viewBox="0 0 447 76" fill="none" xmlns="http://www.w3.org/2000/svg">
<g filter="url(#filter0_di_413_153)">
<path d="M15.5618 46V15.2H28.9818C30.8004 15.2 32.4724 15.64 33.9978 16.52C35.5231 17.3707 36.7258 18.544 37.6058 20.04C38.5151 21.5067 38.9698 23.164 38.9698 25.012C38.9698 26.772 38.5151 28.3853 37.6058 29.852C36.7258 31.3187 35.5231 32.492 33.9978 33.372C32.5018 34.252 30.8298 34.692 28.9818 34.692H21.1498V46H15.5618ZM33.4698 46L25.6378 32.096L31.4898 30.996L40.2018 46.044L33.4698 46ZM21.1498 29.676H29.0258C29.8471 29.676 30.5804 29.4853 31.2258 29.104C31.8711 28.6933 32.3698 28.1507 32.7218 27.476C33.0738 26.772 33.2498 25.9947 33.2498 25.144C33.2498 24.176 33.0298 23.34 32.5898 22.636C32.1498 21.932 31.5338 21.3747 30.7418 20.964C29.9498 20.5533 29.0404 20.348 28.0138 20.348H21.1498V29.676ZM59.4171 46.44C57.0997 46.44 55.0317 45.9267 53.2131 44.9C51.3944 43.844 49.9571 42.4067 48.9011 40.588C47.8744 38.7693 47.3611 36.7013 47.3611 34.384C47.3611 32.0667 47.8744 29.9987 48.9011 28.18C49.9571 26.3613 51.3944 24.9387 53.2131 23.912C55.0317 22.856 57.0997 22.328 59.4171 22.328C61.7051 22.328 63.7584 22.856 65.5771 23.912C67.3957 24.9387 68.8184 26.3613 69.8451 28.18C70.9011 29.9987 71.4291 32.0667 71.4291 34.384C71.4291 36.7013 70.9011 38.7693 69.8451 40.588C68.8184 42.4067 67.3957 43.844 65.5771 44.9C63.7584 45.9267 61.7051 46.44 59.4171 46.44ZM59.4171 41.644C60.6784 41.644 61.8077 41.336 62.8051 40.72C63.8024 40.0747 64.5797 39.2093 65.1371 38.124C65.7237 37.0093 66.0024 35.7627 65.9731 34.384C66.0024 32.976 65.7237 31.7293 65.1371 30.644C64.5797 29.5293 63.8024 28.664 62.8051 28.048C61.8077 27.432 60.6784 27.124 59.4171 27.124C58.1557 27.124 57.0117 27.4467 55.9851 28.092C54.9877 28.708 54.2104 29.5733 53.6531 30.688C53.0957 31.7733 52.8171 33.0053 52.8171 34.384C52.8171 35.7627 53.0957 37.0093 53.6531 38.124C54.2104 39.2093 54.9877 40.0747 55.9851 40.72C57.0117 41.336 58.1557 41.644 59.4171 41.644ZM88.7231 46.44C87.0511 46.44 85.5991 46.0587 84.3671 45.296C83.1645 44.5333 82.2258 43.4627 81.5511 42.084C80.9058 40.7053 80.5831 39.048 80.5831 37.112V22.812H85.9511V35.968C85.9511 37.7867 86.3765 39.224 87.2271 40.28C88.1071 41.336 89.3245 41.864 90.8791 41.864C91.6418 41.864 92.3311 41.7467 92.9471 41.512C93.5925 41.248 94.1498 40.896 94.6191 40.456C95.0885 39.9867 95.4551 39.4293 95.7191 38.784C95.9831 38.1387 96.1151 37.4493 96.1151 36.716V22.812H101.483V46H96.2471L96.1591 41.16L97.1271 40.632C96.7751 41.7173 96.1738 42.7 95.3231 43.58C94.5018 44.46 93.5191 45.164 92.3751 45.692C91.2311 46.1907 90.0138 46.44 88.7231 46.44ZM114.822 46V16.916H120.19V46H114.822ZM110.246 27.828V22.812H125.25V27.828H110.246ZM144.425 46.44C141.99 46.44 139.834 45.9413 137.957 44.944C136.109 43.9173 134.657 42.524 133.601 40.764C132.574 38.9747 132.061 36.9213 132.061 34.604C132.061 32.7853 132.354 31.128 132.941 29.632C133.528 28.136 134.349 26.8453 135.405 25.76C136.461 24.6453 137.708 23.7947 139.145 23.208C140.612 22.592 142.196 22.284 143.897 22.284C145.452 22.284 146.874 22.5773 148.165 23.164C149.485 23.7507 150.629 24.5573 151.597 25.584C152.565 26.5813 153.298 27.784 153.797 29.192C154.325 30.5707 154.574 32.0813 154.545 33.724L154.501 35.66H135.757L134.701 31.92H149.969L149.309 32.668V31.656C149.221 30.776 148.928 29.9987 148.429 29.324C147.93 28.62 147.285 28.0773 146.493 27.696C145.73 27.2853 144.88 27.08 143.941 27.08C142.504 27.08 141.286 27.3587 140.289 27.916C139.292 28.444 138.529 29.236 138.001 30.292C137.502 31.348 137.253 32.6533 137.253 34.208C137.253 35.704 137.561 37.0093 138.177 38.124C138.822 39.2387 139.732 40.104 140.905 40.72C142.078 41.336 143.442 41.644 144.997 41.644C146.082 41.644 147.08 41.468 147.989 41.116C148.928 40.764 149.925 40.1333 150.981 39.224L153.621 42.92C152.829 43.6533 151.92 44.284 150.893 44.812C149.896 45.3107 148.84 45.7067 147.725 46C146.61 46.2933 145.51 46.44 144.425 46.44ZM183.581 46V16.916H188.949V46H183.581ZM179.005 27.828V22.812H194.009V27.828H179.005ZM212.876 46.44C210.558 46.44 208.49 45.9267 206.672 44.9C204.853 43.844 203.416 42.4067 202.36 40.588C201.333 38.7693 200.82 36.7013 200.82 34.384C200.82 32.0667 201.333 29.9987 202.36 28.18C203.416 26.3613 204.853 24.9387 206.672 23.912C208.49 22.856 210.558 22.328 212.876 22.328C215.164 22.328 217.217 22.856 219.036 23.912C220.854 24.9387 222.277 26.3613 223.304 28.18C224.36 29.9987 224.888 32.0667 224.888 34.384C224.888 36.7013 224.36 38.7693 223.304 40.588C222.277 42.4067 220.854 43.844 219.036 44.9C217.217 45.9267 215.164 46.44 212.876 46.44ZM212.876 41.644C214.137 41.644 215.266 41.336 216.264 40.72C217.261 40.0747 218.038 39.2093 218.596 38.124C219.182 37.0093 219.461 35.7627 219.432 34.384C219.461 32.976 219.182 31.7293 218.596 30.644C218.038 29.5293 217.261 28.664 216.264 28.048C215.266 27.432 214.137 27.124 212.876 27.124C211.614 27.124 210.47 27.4467 209.444 28.092C208.446 28.708 207.669 29.5733 207.112 30.688C206.554 31.7733 206.276 33.0053 206.276 34.384C206.276 35.7627 206.554 37.0093 207.112 38.124C207.669 39.2093 208.446 40.0747 209.444 40.72C210.47 41.336 211.614 41.644 212.876 41.644ZM261.364 46L249.044 15.2H255.248L262.112 32.844C262.464 33.7533 262.772 34.5747 263.036 35.308C263.3 36.012 263.535 36.672 263.74 37.288C263.946 37.8747 264.136 38.4467 264.312 39.004C264.488 39.5613 264.664 40.148 264.84 40.764H263.652C263.858 39.972 264.078 39.1947 264.312 38.432C264.547 37.64 264.811 36.804 265.104 35.924C265.427 35.0147 265.808 33.988 266.248 32.844L272.672 15.2H278.92L266.556 46H261.364ZM287.889 46V22.812H293.257V46H287.889ZM290.529 17.884C289.444 17.884 288.593 17.62 287.977 17.092C287.391 16.5347 287.097 15.7573 287.097 14.76C287.097 13.8213 287.405 13.0733 288.021 12.516C288.637 11.9293 289.473 11.636 290.529 11.636C291.615 11.636 292.451 11.9147 293.037 12.472C293.653 13 293.961 13.7627 293.961 14.76C293.961 15.6693 293.653 16.4173 293.037 17.004C292.421 17.5907 291.585 17.884 290.529 17.884ZM314.465 46.44C312.294 46.44 310.344 45.912 308.613 44.856C306.882 43.8 305.518 42.3627 304.521 40.544C303.524 38.7253 303.025 36.672 303.025 34.384C303.025 32.096 303.524 30.0427 304.521 28.224C305.518 26.4053 306.882 24.968 308.613 23.912C310.344 22.856 312.294 22.328 314.465 22.328C316.518 22.328 318.396 22.7387 320.097 23.56C321.828 24.352 323.148 25.4373 324.057 26.816L321.109 30.424C320.669 29.808 320.112 29.2507 319.437 28.752C318.762 28.2533 318.029 27.8573 317.237 27.564C316.474 27.2707 315.726 27.124 314.993 27.124C313.673 27.124 312.5 27.4467 311.473 28.092C310.476 28.708 309.684 29.5733 309.097 30.688C308.51 31.7733 308.217 33.0053 308.217 34.384C308.217 35.7627 308.51 36.9947 309.097 38.08C309.713 39.1653 310.534 40.0307 311.561 40.676C312.588 41.3213 313.732 41.644 314.993 41.644C315.785 41.644 316.533 41.5267 317.237 41.292C317.941 41.028 318.616 40.6613 319.261 40.192C319.936 39.7227 320.552 39.136 321.109 38.432L324.057 42.04C323.089 43.3307 321.725 44.3867 319.965 45.208C318.205 46.0293 316.372 46.44 314.465 46.44ZM335.149 46V16.916H340.517V46H335.149ZM330.573 27.828V22.812H345.577V27.828H330.573ZM364.444 46.44C362.126 46.44 360.058 45.9267 358.24 44.9C356.421 43.844 354.984 42.4067 353.928 40.588C352.901 38.7693 352.388 36.7013 352.388 34.384C352.388 32.0667 352.901 29.9987 353.928 28.18C354.984 26.3613 356.421 24.9387 358.24 23.912C360.058 22.856 362.126 22.328 364.444 22.328C366.732 22.328 368.785 22.856 370.604 23.912C372.422 24.9387 373.845 26.3613 374.872 28.18C375.928 29.9987 376.456 32.0667 376.456 34.384C376.456 36.7013 375.928 38.7693 374.872 40.588C373.845 42.4067 372.422 43.844 370.604 44.9C368.785 45.9267 366.732 46.44 364.444 46.44ZM364.444 41.644C365.705 41.644 366.834 41.336 367.832 40.72C368.829 40.0747 369.606 39.2093 370.164 38.124C370.75 37.0093 371.029 35.7627 371 34.384C371.029 32.976 370.75 31.7293 370.164 30.644C369.606 29.5293 368.829 28.664 367.832 28.048C366.834 27.432 365.705 27.124 364.444 27.124C363.182 27.124 362.038 27.4467 361.012 28.092C360.014 28.708 359.237 29.5733 358.68 30.688C358.122 31.7733 357.844 33.0053 357.844 34.384C357.844 35.7627 358.122 37.0093 358.68 38.124C359.237 39.2093 360.014 40.0747 361.012 40.72C362.038 41.336 363.182 41.644 364.444 41.644ZM385.698 46V22.812H390.978L391.066 30.204L390.362 28.532C390.684 27.3587 391.242 26.3027 392.034 25.364C392.826 24.4253 393.735 23.692 394.762 23.164C395.818 22.6067 396.903 22.328 398.018 22.328C398.516 22.328 398.986 22.372 399.426 22.46C399.895 22.548 400.276 22.6507 400.57 22.768L399.162 28.664C398.81 28.488 398.399 28.356 397.93 28.268C397.49 28.1507 397.035 28.092 396.566 28.092C395.803 28.092 395.084 28.2387 394.41 28.532C393.764 28.796 393.192 29.1773 392.694 29.676C392.224 30.1747 391.843 30.7613 391.55 31.436C391.256 32.0813 391.11 32.8 391.11 33.592V46H385.698ZM412.181 56.12L417.065 44.768L417.109 48.42L405.669 22.812H411.873L418.297 38.08C418.503 38.4613 418.708 38.9747 418.913 39.62C419.119 40.236 419.295 40.8373 419.441 41.424L418.341 41.82C418.547 41.2627 418.752 40.6613 418.957 40.016C419.192 39.3707 419.427 38.7253 419.661 38.08L425.117 22.812H431.365L421.729 46L417.813 56.12H412.181Z" fill="#FF9A00"/>
<path d="M15.5618 46H13.5618V48H15.5618V46ZM15.5618 15.2V13.2H13.5618V15.2H15.5618ZM33.9978 16.52L32.9983 18.2524L33.0109 18.2596L33.0236 18.2667L33.9978 16.52ZM37.6058 20.04L35.8819 21.054L35.8937 21.0741L35.906 21.0939L37.6058 20.04ZM37.6058 29.852L35.906 28.7981L35.8983 28.8105L35.8908 28.823L37.6058 29.852ZM33.9978 33.372L32.9983 31.6396L32.991 31.6438L32.9837 31.6481L33.9978 33.372ZM21.1498 34.692V32.692H19.1498V34.692H21.1498ZM21.1498 46V48H23.1498V46H21.1498ZM33.4698 46L31.7272 46.9816L32.2966 47.9924L33.4567 48L33.4698 46ZM25.6378 32.096L25.2683 30.1304L22.5255 30.646L23.8952 33.0776L25.6378 32.096ZM31.4898 30.996L33.2206 29.9939L32.5114 28.7689L31.1203 29.0304L31.4898 30.996ZM40.2018 46.044L40.1887 48.044L43.6839 48.0668L41.9326 45.0419L40.2018 46.044ZM21.1498 29.676H19.1498V31.676H21.1498V29.676ZM31.2258 29.104L32.2432 30.8259L32.2717 30.8091L32.2995 30.7913L31.2258 29.104ZM32.7218 27.476L34.495 28.4011L34.5029 28.3858L34.5106 28.3704L32.7218 27.476ZM32.5898 22.636L34.2858 21.576L34.2858 21.576L32.5898 22.636ZM30.7418 20.964L29.8211 22.7395L29.8211 22.7395L30.7418 20.964ZM21.1498 20.348V18.348H19.1498V20.348H21.1498ZM17.5618 46V15.2H13.5618V46H17.5618ZM15.5618 17.2H28.9818V13.2H15.5618V17.2ZM28.9818 17.2C30.4616 17.2 31.7871 17.5536 32.9983 18.2524L34.9972 14.7876C33.1578 13.7264 31.1393 13.2 28.9818 13.2V17.2ZM33.0236 18.2667C34.2404 18.9453 35.1834 19.8666 35.8819 21.054L39.3297 19.026C38.2681 17.2214 36.8058 15.796 34.9719 14.7733L33.0236 18.2667ZM35.906 21.0939C36.6051 22.2215 36.9698 23.5089 36.9698 25.012H40.9698C40.9698 22.8191 40.4251 20.7919 39.3056 18.9861L35.906 21.0939ZM36.9698 25.012C36.9698 26.4074 36.615 27.6545 35.906 28.7981L39.3056 30.9059C40.4152 29.1161 40.9698 27.1366 40.9698 25.012H36.9698ZM35.8908 28.823C35.191 29.9894 34.2383 30.9242 32.9983 31.6396L34.9972 35.1044C36.8079 34.0598 38.2606 32.648 39.3208 30.881L35.8908 28.823ZM32.9837 31.6481C31.8151 32.3356 30.4972 32.692 28.9818 32.692V36.692C31.1624 36.692 33.1884 36.1684 35.0118 35.0959L32.9837 31.6481ZM28.9818 32.692H21.1498V36.692H28.9818V32.692ZM19.1498 34.692V46H23.1498V34.692H19.1498ZM21.1498 44H15.5618V48H21.1498V44ZM35.2123 45.0184L27.3803 31.1144L23.8952 33.0776L31.7272 46.9816L35.2123 45.0184ZM26.0073 34.0616L31.8593 32.9616L31.1203 29.0304L25.2683 30.1304L26.0073 34.0616ZM29.7589 31.9981L38.4709 47.0461L41.9326 45.0419L33.2206 29.9939L29.7589 31.9981ZM40.2149 44.044L33.4829 44L33.4567 48L40.1887 48.044L40.2149 44.044ZM21.1498 31.676H29.0258V27.676H21.1498V31.676ZM29.0258 31.676C30.1697 31.676 31.2607 31.4064 32.2432 30.8259L30.2083 27.3821C29.9002 27.5642 29.5245 27.676 29.0258 27.676V31.676ZM32.2995 30.7913C33.2392 30.1934 33.9798 29.3885 34.495 28.4011L30.9486 26.5509C30.7598 26.9128 30.503 27.1933 30.152 27.4167L32.2995 30.7913ZM34.5106 28.3704C35.0125 27.3667 35.2498 26.2796 35.2498 25.144H31.2498C31.2498 25.7098 31.1351 26.1773 30.9329 26.5816L34.5106 28.3704ZM35.2498 25.144C35.2498 23.8645 34.9555 22.6476 34.2858 21.576L30.8938 23.696C31.1041 24.0324 31.2498 24.4875 31.2498 25.144H35.2498ZM34.2858 21.576C33.6419 20.5458 32.7477 19.7512 31.6624 19.1885L29.8211 22.7395C30.3199 22.9981 30.6577 23.3182 30.8938 23.696L34.2858 21.576ZM31.6624 19.1885C30.5458 18.6095 29.3123 18.348 28.0138 18.348V22.348C28.7686 22.348 29.3538 22.4972 29.8211 22.7395L31.6624 19.1885ZM28.0138 18.348H21.1498V22.348H28.0138V18.348ZM19.1498 20.348V29.676H23.1498V20.348H19.1498ZM53.2131 44.9L52.2088 46.6296L52.2193 46.6357L52.2299 46.6416L53.2131 44.9ZM48.9011 40.588L47.1594 41.5712L47.1654 41.5818L47.1715 41.5923L48.9011 40.588ZM48.9011 28.18L47.1715 27.1757L47.1654 27.1862L47.1594 27.1968L48.9011 28.18ZM53.2131 23.912L54.1963 25.6536L54.2068 25.6477L54.2173 25.6416L53.2131 23.912ZM65.5771 23.912L64.5728 25.6416L64.5833 25.6477L64.5939 25.6536L65.5771 23.912ZM69.8451 28.18L68.1034 29.1632L68.1094 29.1738L68.1155 29.1843L69.8451 28.18ZM69.8451 40.588L68.1155 39.5837L68.1094 39.5942L68.1034 39.6048L69.8451 40.588ZM65.5771 44.9L66.5603 46.6416L66.5708 46.6357L66.5813 46.6296L65.5771 44.9ZM62.8051 40.72L63.8561 42.4216L63.8739 42.4106L63.8916 42.3991L62.8051 40.72ZM65.1371 38.124L63.3672 37.1925L63.3625 37.2014L63.3579 37.2104L65.1371 38.124ZM65.9731 34.384L63.9735 34.3423L63.9726 34.3844L63.9735 34.4265L65.9731 34.384ZM65.1371 30.644L63.3482 31.5384L63.3625 31.567L63.3777 31.595L65.1371 30.644ZM62.8051 28.048L63.8561 26.3464L63.8561 26.3464L62.8051 28.048ZM55.9851 28.092L57.0361 29.7936L57.0427 29.7895L57.0494 29.7853L55.9851 28.092ZM53.6531 30.688L55.4322 31.6016L55.4371 31.592L55.4419 31.5824L53.6531 30.688ZM53.6531 38.124L51.8642 39.0184L51.869 39.028L51.8739 39.0376L53.6531 38.124ZM55.9851 40.72L54.8986 42.3991L54.927 42.4176L54.9561 42.435L55.9851 40.72ZM59.4171 44.44C57.4056 44.44 55.683 43.9976 54.1963 43.1584L52.2299 46.6416C54.3805 47.8557 56.7938 48.44 59.4171 48.44V44.44ZM54.2173 43.1704C52.6994 42.289 51.512 41.1017 50.6306 39.5837L47.1715 41.5923C48.4021 43.7116 50.0894 45.399 52.2088 46.6296L54.2173 43.1704ZM50.6427 39.6048C49.8034 38.1181 49.3611 36.3954 49.3611 34.384H45.3611C45.3611 37.0072 45.9454 39.4206 47.1594 41.5712L50.6427 39.6048ZM49.3611 34.384C49.3611 32.3726 49.8034 30.6499 50.6427 29.1632L47.1594 27.1968C45.9454 29.3474 45.3611 31.7608 45.3611 34.384H49.3611ZM50.6306 29.1843C51.5092 27.6712 52.6898 26.504 54.1963 25.6536L52.2299 22.1704C50.099 23.3733 48.4049 25.0515 47.1715 27.1757L50.6306 29.1843ZM54.2173 25.6416C55.7005 24.7804 57.4156 24.328 59.4171 24.328V20.328C56.7839 20.328 54.3629 20.9316 52.2088 22.1824L54.2173 25.6416ZM59.4171 24.328C61.3843 24.328 63.0857 24.7781 64.5728 25.6416L66.5813 22.1824C64.4311 20.9339 62.0258 20.328 59.4171 20.328V24.328ZM64.5939 25.6536C66.0954 26.5013 67.2558 27.6617 68.1034 29.1632L71.5867 27.1968C70.381 25.061 68.6961 23.3761 66.5603 22.1704L64.5939 25.6536ZM68.1155 29.1843C68.9767 30.6675 69.4291 32.3825 69.4291 34.384H73.4291C73.4291 31.7508 72.8254 29.3299 71.5746 27.1757L68.1155 29.1843ZM69.4291 34.384C69.4291 36.3855 68.9767 38.1005 68.1155 39.5837L71.5746 41.5923C72.8254 39.4381 73.4291 37.0172 73.4291 34.384H69.4291ZM68.1034 39.6048C67.253 41.1112 66.0859 42.2919 64.5728 43.1704L66.5813 46.6296C68.7056 45.3961 70.3838 43.7021 71.5867 41.5712L68.1034 39.6048ZM64.5939 43.1584C63.1033 43.9998 61.3943 44.44 59.4171 44.44V48.44C62.0158 48.44 64.4135 47.8535 66.5603 46.6416L64.5939 43.1584ZM59.4171 43.644C61.0203 43.644 62.5188 43.2475 63.8561 42.4216L61.7541 39.0184C61.0967 39.4245 60.3365 39.644 59.4171 39.644V43.644ZM63.8916 42.3991C65.191 41.5583 66.2035 40.4255 66.9162 39.0376L63.3579 37.2104C62.956 37.9931 62.4138 38.591 61.7186 39.0409L63.8916 42.3991ZM66.9069 39.0555C67.6661 37.613 68.0085 36.0261 67.9726 34.3415L63.9735 34.4265C63.9963 35.4992 63.7814 36.4056 63.3672 37.1925L66.9069 39.0555ZM67.9726 34.4257C68.0081 32.7212 67.6699 31.1238 66.8965 29.693L63.3777 31.595C63.7776 32.3349 63.9967 33.2308 63.9735 34.3423L67.9726 34.4257ZM66.9259 29.7496C66.2133 28.3244 65.1898 27.1702 63.8561 26.3464L61.7541 29.7496C62.415 30.1578 62.9461 30.7342 63.3482 31.5384L66.9259 29.7496ZM63.8561 26.3464C62.5188 25.5205 61.0203 25.124 59.4171 25.124V29.124C60.3365 29.124 61.0967 29.3435 61.7541 29.7496L63.8561 26.3464ZM59.4171 25.124C57.795 25.124 56.2794 25.5447 54.9207 26.3987L57.0494 29.7853C57.7441 29.3486 58.5164 29.124 59.4171 29.124V25.124ZM54.9341 26.3904C53.6004 27.2142 52.5768 28.3684 51.8642 29.7936L55.4419 31.5824C55.844 30.7782 56.3751 30.2018 57.0361 29.7936L54.9341 26.3904ZM51.8739 29.7744C51.1535 31.1773 50.8171 32.7293 50.8171 34.384H54.8171C54.8171 33.2814 55.0379 32.3694 55.4322 31.6016L51.8739 29.7744ZM50.8171 34.384C50.8171 36.0397 51.1538 37.5976 51.8642 39.0184L55.4419 37.2296C55.0377 36.4211 54.8171 35.4856 54.8171 34.384H50.8171ZM51.8739 39.0376C52.5866 40.4255 53.5991 41.5583 54.8986 42.3991L57.0716 39.0409C56.3763 38.591 55.8342 37.9931 55.4322 37.2104L51.8739 39.0376ZM54.9561 42.435C56.3105 43.2476 57.8135 43.644 59.4171 43.644V39.644C58.498 39.644 57.713 39.4244 57.0141 39.005L54.9561 42.435ZM84.3671 45.296L83.296 46.985L83.3052 46.9908L83.3144 46.9965L84.3671 45.296ZM81.5511 42.084L79.7397 42.9319L79.7471 42.9476L79.7547 42.9631L81.5511 42.084ZM80.5831 22.812V20.812H78.5831V22.812H80.5831ZM85.9511 22.812H87.9511V20.812H85.9511V22.812ZM87.2271 40.28L85.6696 41.5347L85.68 41.5476L85.6907 41.5604L87.2271 40.28ZM92.9471 41.512L93.6591 43.381L93.6819 43.3723L93.7044 43.3631L92.9471 41.512ZM94.6191 40.456L95.987 41.9151L96.0105 41.893L96.0333 41.8702L94.6191 40.456ZM95.7191 38.784L97.5702 39.5413L97.5702 39.5413L95.7191 38.784ZM96.1151 22.812V20.812H94.1151V22.812H96.1151ZM101.483 22.812H103.483V20.812H101.483V22.812ZM101.483 46V48H103.483V46H101.483ZM96.2471 46L94.2475 46.0364L94.2832 48H96.2471V46ZM96.1591 41.16L95.2014 39.4042L94.1374 39.9846L94.1595 41.1964L96.1591 41.16ZM97.1271 40.632L99.0296 41.249L100.579 36.4708L96.1694 38.8762L97.1271 40.632ZM95.3231 43.58L93.8852 42.19L93.873 42.2026L93.861 42.2154L95.3231 43.58ZM92.3751 45.692L93.1743 47.5254L93.1939 47.5169L93.2132 47.5079L92.3751 45.692ZM88.7231 44.44C87.3647 44.44 86.2894 44.1338 85.4198 43.5955L83.3144 46.9965C84.9089 47.9836 86.7376 48.44 88.7231 48.44V44.44ZM85.4382 43.607C84.5718 43.0575 83.873 42.2786 83.3476 41.2049L79.7547 42.9631C80.5786 44.6467 81.7572 46.0091 83.296 46.985L85.4382 43.607ZM83.3625 41.2361C82.8704 40.1847 82.5831 38.832 82.5831 37.112H78.5831C78.5831 39.264 78.9412 41.2259 79.7397 42.9319L83.3625 41.2361ZM82.5831 37.112V22.812H78.5831V37.112H82.5831ZM80.5831 24.812H85.9511V20.812H80.5831V24.812ZM83.9511 22.812V35.968H87.9511V22.812H83.9511ZM83.9511 35.968C83.9511 38.0874 84.4482 40.0184 85.6696 41.5347L88.7846 39.0253C88.3047 38.4296 87.9511 37.4859 87.9511 35.968H83.9511ZM85.6907 41.5604C87.0033 43.1355 88.8183 43.864 90.8791 43.864V39.864C89.8307 39.864 89.211 39.5365 88.7636 38.9996L85.6907 41.5604ZM90.8791 43.864C91.8475 43.864 92.783 43.7147 93.6591 43.381L92.2351 39.643C91.8792 39.7786 91.4361 39.864 90.8791 39.864V43.864ZM93.7044 43.3631C94.5565 43.0145 95.3254 42.5354 95.987 41.9151L93.2512 38.9969C92.9742 39.2566 92.6285 39.4815 92.1899 39.6609L93.7044 43.3631ZM96.0333 41.8702C96.6999 41.2037 97.2108 40.4198 97.5702 39.5413L93.868 38.0267C93.6994 38.4389 93.477 38.7697 93.2049 39.0418L96.0333 41.8702ZM97.5702 39.5413C97.9376 38.6433 98.1151 37.6954 98.1151 36.716H94.1151C94.1151 37.2033 94.0287 37.6341 93.868 38.0267L97.5702 39.5413ZM98.1151 36.716V22.812H94.1151V36.716H98.1151ZM96.1151 24.812H101.483V20.812H96.1151V24.812ZM99.4831 22.812V46H103.483V22.812H99.4831ZM101.483 44H96.2471V48H101.483V44ZM98.2468 45.9636L98.1588 41.1236L94.1595 41.1964L94.2475 46.0364L98.2468 45.9636ZM97.1168 42.9158L98.0848 42.3878L96.1694 38.8762L95.2014 39.4042L97.1168 42.9158ZM95.2247 40.015C94.9734 40.7899 94.5399 41.5127 93.8852 42.19L96.7611 44.97C97.8077 43.8873 98.5769 42.6448 99.0296 41.249L95.2247 40.015ZM93.861 42.2154C93.2247 42.8971 92.4569 43.4515 91.537 43.8761L93.2132 47.5079C94.5813 46.8765 95.7789 46.0229 96.7852 44.9446L93.861 42.2154ZM91.576 43.8586C90.6927 44.2436 89.7484 44.44 88.7231 44.44V48.44C90.2792 48.44 91.7695 48.1377 93.1743 47.5254L91.576 43.8586ZM114.822 46H112.822V48H114.822V46ZM114.822 16.916V14.916H112.822V16.916H114.822ZM120.19 16.916H122.19V14.916H120.19V16.916ZM120.19 46V48H122.19V46H120.19ZM110.246 27.828H108.246V29.828H110.246V27.828ZM110.246 22.812V20.812H108.246V22.812H110.246ZM125.25 22.812H127.25V20.812H125.25V22.812ZM125.25 27.828V29.828H127.25V27.828H125.25ZM116.822 46V16.916H112.822V46H116.822ZM114.822 18.916H120.19V14.916H114.822V18.916ZM118.19 16.916V46H122.19V16.916H118.19ZM120.19 44H114.822V48H120.19V44ZM112.246 27.828V22.812H108.246V27.828H112.246ZM110.246 24.812H125.25V20.812H110.246V24.812ZM123.25 22.812V27.828H127.25V22.812H123.25ZM125.25 25.828H110.246V29.828H125.25V25.828ZM137.957 44.944L136.986 46.6923L137.002 46.7014L137.019 46.7102L137.957 44.944ZM133.601 40.764L131.866 41.7593L131.876 41.7763L131.886 41.793L133.601 40.764ZM132.941 29.632L131.079 28.9018L132.941 29.632ZM135.405 25.76L136.839 27.1547L136.848 27.1452L136.857 27.1355L135.405 25.76ZM139.145 23.208L139.901 25.0597L139.91 25.0559L139.92 25.052L139.145 23.208ZM148.165 23.164L147.337 24.9847L147.345 24.9882L147.353 24.9916L148.165 23.164ZM151.597 25.584L150.142 26.956L150.152 26.9666L150.162 26.977L151.597 25.584ZM153.797 29.192L151.912 29.8597L151.92 29.8836L151.929 29.9073L153.797 29.192ZM154.545 33.724L156.545 33.7694L156.545 33.7597L154.545 33.724ZM154.501 35.66V37.66H156.456L156.501 35.7054L154.501 35.66ZM135.757 35.66L133.832 36.2035L134.244 37.66H135.757V35.66ZM134.701 31.92V29.92H132.058L132.776 32.4635L134.701 31.92ZM149.969 31.92L151.469 33.2432L154.401 29.92H149.969V31.92ZM149.309 32.668H147.309V37.9575L150.809 33.9912L149.309 32.668ZM149.309 31.656H151.309V31.5562L151.299 31.457L149.309 31.656ZM148.429 29.324L146.797 30.48L146.809 30.4965L146.821 30.5128L148.429 29.324ZM146.493 27.696L145.545 29.4569L145.585 29.4784L145.625 29.498L146.493 27.696ZM140.289 27.916L141.225 29.6836L141.245 29.673L141.265 29.6619L140.289 27.916ZM138.001 30.292L136.212 29.3976L136.202 29.4177L136.193 29.438L138.001 30.292ZM138.177 38.124L136.427 39.0914L136.436 39.1088L136.446 39.1261L138.177 38.124ZM140.905 40.72L139.975 42.4908L139.975 42.4908L140.905 40.72ZM147.989 41.116L147.287 39.2433L147.277 39.2471L147.267 39.2509L147.989 41.116ZM150.981 39.224L152.609 38.0615L151.336 36.2794L149.676 37.7085L150.981 39.224ZM153.621 42.92L154.98 44.3875L156.272 43.1908L155.249 41.7575L153.621 42.92ZM150.893 44.812L151.787 46.6009L151.798 46.5958L151.808 46.5906L150.893 44.812ZM147.725 46L148.234 47.9341L148.234 47.9341L147.725 46ZM144.425 44.44C142.27 44.44 140.444 44.0006 138.895 43.1778L137.019 46.7102C139.225 47.8821 141.711 48.44 144.425 48.44V44.44ZM138.928 43.1957C137.377 42.3341 136.186 41.1849 135.316 39.735L131.886 41.793C133.128 43.8631 134.841 45.5006 136.986 46.6923L138.928 43.1957ZM135.336 39.7687C134.504 38.3182 134.061 36.616 134.061 34.604H130.061C130.061 37.2266 130.645 39.6311 131.866 41.7593L135.336 39.7687ZM134.061 34.604C134.061 33.0025 134.319 31.5969 134.803 30.3622L131.079 28.9018C130.39 30.6591 130.061 32.5681 130.061 34.604H134.061ZM134.803 30.3622C135.299 29.0986 135.979 28.0378 136.839 27.1547L133.972 24.3653C132.719 25.6529 131.757 27.1734 131.079 28.9018L134.803 30.3622ZM136.857 27.1355C137.715 26.2296 138.724 25.5401 139.901 25.0597L138.389 21.3563C136.692 22.0492 135.207 23.0611 133.953 24.3845L136.857 27.1355ZM139.92 25.052C141.124 24.546 142.443 24.284 143.897 24.284V20.284C141.948 20.284 140.099 20.638 138.371 21.364L139.92 25.052ZM143.897 24.284C145.194 24.284 146.331 24.5272 147.337 24.9847L148.993 21.3433C147.418 20.6275 145.709 20.284 143.897 20.284V24.284ZM147.353 24.9916C148.436 25.4732 149.36 26.127 150.142 26.956L153.052 24.212C151.898 22.9877 150.534 22.0282 148.977 21.3364L147.353 24.9916ZM150.162 26.977C150.915 27.7526 151.502 28.7024 151.912 29.8597L155.682 28.5243C155.095 26.8656 154.215 25.4101 153.032 24.191L150.162 26.977ZM151.929 29.9073C152.356 31.0208 152.571 32.2732 152.545 33.6883L156.545 33.7597C156.578 31.8895 156.294 30.1205 155.665 28.4767L151.929 29.9073ZM152.546 33.6786L152.502 35.6146L156.501 35.7054L156.545 33.7694L152.546 33.6786ZM154.501 33.66H135.757V37.66H154.501V33.66ZM137.682 35.1165L136.626 31.3765L132.776 32.4635L133.832 36.2035L137.682 35.1165ZM134.701 33.92H149.969V29.92H134.701V33.92ZM148.469 30.5968L147.809 31.3448L150.809 33.9912L151.469 33.2432L148.469 30.5968ZM151.309 32.668V31.656H147.309V32.668H151.309ZM151.299 31.457C151.177 30.2389 150.762 29.1154 150.037 28.1352L146.821 30.5128C147.094 30.882 147.265 31.3131 147.319 31.855L151.299 31.457ZM150.061 28.168C149.363 27.1819 148.452 26.4195 147.361 25.894L145.625 29.498C146.118 29.7352 146.498 30.0581 146.797 30.48L150.061 28.168ZM147.441 25.9351C146.363 25.3545 145.182 25.08 143.941 25.08V29.08C144.577 29.08 145.098 29.2161 145.545 29.4569L147.441 25.9351ZM143.941 25.08C142.249 25.08 140.676 25.4084 139.313 26.1701L141.265 29.6619C141.896 29.3089 142.759 29.08 143.941 29.08V25.08ZM139.353 26.1484C137.97 26.8808 136.917 27.9871 136.212 29.3976L139.79 31.1864C140.141 30.4849 140.614 30.0072 141.225 29.6836L139.353 26.1484ZM136.193 29.438C135.533 30.8341 135.253 32.4512 135.253 34.208H139.253C139.253 32.8554 139.472 31.8619 139.81 31.146L136.193 29.438ZM135.253 34.208C135.253 35.983 135.62 37.6326 136.427 39.0914L139.928 37.1566C139.502 36.386 139.253 35.425 139.253 34.208H135.253ZM136.446 39.1261C137.286 40.5773 138.478 41.7047 139.975 42.4908L141.835 38.9492C140.985 38.5033 140.358 37.9001 139.908 37.1219L136.446 39.1261ZM139.975 42.4908C141.481 43.2814 143.175 43.644 144.997 43.644V39.644C143.71 39.644 142.675 39.3906 141.835 38.9492L139.975 42.4908ZM144.997 43.644C146.301 43.644 147.547 43.4318 148.711 42.9811L147.267 39.2509C146.613 39.5042 145.863 39.644 144.997 39.644V43.644ZM148.691 42.9887C149.918 42.5287 151.116 41.747 152.286 40.7395L149.676 37.7085C148.734 38.5197 147.937 38.9993 147.287 39.2433L148.691 42.9887ZM149.354 40.3865L151.994 44.0825L155.249 41.7575L152.609 38.0615L149.354 40.3865ZM152.262 41.4525C151.612 42.0542 150.855 42.5827 149.978 43.0334L151.808 46.5906C152.985 45.9853 154.046 45.2525 154.98 44.3875L152.262 41.4525ZM149.999 43.0231C149.129 43.4582 148.202 43.8064 147.216 44.0659L148.234 47.9341C149.477 47.607 150.663 47.1631 151.787 46.6009L149.999 43.0231ZM147.216 44.0659C146.257 44.3182 145.328 44.44 144.425 44.44V48.44C145.692 48.44 146.964 48.2685 148.234 47.9341L147.216 44.0659ZM183.581 46H181.581V48H183.581V46ZM183.581 16.916V14.916H181.581V16.916H183.581ZM188.949 16.916H190.949V14.916H188.949V16.916ZM188.949 46V48H190.949V46H188.949ZM179.005 27.828H177.005V29.828H179.005V27.828ZM179.005 22.812V20.812H177.005V22.812H179.005ZM194.009 22.812H196.009V20.812H194.009V22.812ZM194.009 27.828V29.828H196.009V27.828H194.009ZM185.581 46V16.916H181.581V46H185.581ZM183.581 18.916H188.949V14.916H183.581V18.916ZM186.949 16.916V46H190.949V16.916H186.949ZM188.949 44H183.581V48H188.949V44ZM181.005 27.828V22.812H177.005V27.828H181.005ZM179.005 24.812H194.009V20.812H179.005V24.812ZM192.009 22.812V27.828H196.009V22.812H192.009ZM194.009 25.828H179.005V29.828H194.009V25.828ZM206.672 44.9L205.667 46.6296L205.678 46.6357L205.688 46.6416L206.672 44.9ZM202.36 40.588L200.618 41.5712L200.624 41.5818L200.63 41.5923L202.36 40.588ZM202.36 28.18L200.63 27.1757L200.624 27.1862L200.618 27.1968L202.36 28.18ZM206.672 23.912L207.655 25.6536L207.665 25.6477L207.676 25.6416L206.672 23.912ZM219.036 23.912L218.031 25.6416L218.042 25.6477L218.052 25.6536L219.036 23.912ZM223.304 28.18L221.562 29.1632L221.568 29.1738L221.574 29.1843L223.304 28.18ZM223.304 40.588L221.574 39.5837L221.568 39.5942L221.562 39.6048L223.304 40.588ZM219.036 44.9L220.019 46.6416L220.029 46.6357L220.04 46.6296L219.036 44.9ZM216.264 40.72L217.315 42.4216L217.333 42.4106L217.35 42.3991L216.264 40.72ZM218.596 38.124L216.826 37.1925L216.821 37.2014L216.817 37.2104L218.596 38.124ZM219.432 34.384L217.432 34.3423L217.431 34.3844L217.432 34.4265L219.432 34.384ZM218.596 30.644L216.807 31.5384L216.821 31.567L216.836 31.595L218.596 30.644ZM216.264 28.048L217.315 26.3464L217.315 26.3464L216.264 28.048ZM209.444 28.092L210.495 29.7936L210.501 29.7895L210.508 29.7853L209.444 28.092ZM207.112 30.688L208.891 31.6016L208.896 31.592L208.901 31.5824L207.112 30.688ZM207.112 38.124L205.323 39.0184L205.328 39.028L205.333 39.0376L207.112 38.124ZM209.444 40.72L208.357 42.3991L208.386 42.4176L208.415 42.435L209.444 40.72ZM212.876 44.44C210.864 44.44 209.142 43.9976 207.655 43.1584L205.688 46.6416C207.839 47.8557 210.252 48.44 212.876 48.44V44.44ZM207.676 43.1704C206.158 42.289 204.971 41.1017 204.089 39.5837L200.63 41.5923C201.861 43.7116 203.548 45.399 205.667 46.6296L207.676 43.1704ZM204.101 39.6048C203.262 38.1181 202.82 36.3954 202.82 34.384H198.82C198.82 37.0072 199.404 39.4206 200.618 41.5712L204.101 39.6048ZM202.82 34.384C202.82 32.3726 203.262 30.6499 204.101 29.1632L200.618 27.1968C199.404 29.3474 198.82 31.7608 198.82 34.384H202.82ZM204.089 29.1843C204.968 27.6712 206.148 26.504 207.655 25.6536L205.688 22.1704C203.558 23.3733 201.864 25.0515 200.63 27.1757L204.089 29.1843ZM207.676 25.6416C209.159 24.7804 210.874 24.328 212.876 24.328V20.328C210.243 20.328 207.822 20.9316 205.667 22.1824L207.676 25.6416ZM212.876 24.328C214.843 24.328 216.544 24.7781 218.031 25.6416L220.04 22.1824C217.89 20.9339 215.484 20.328 212.876 20.328V24.328ZM218.052 25.6536C219.554 26.5013 220.714 27.6617 221.562 29.1632L225.045 27.1968C223.84 25.061 222.155 23.3761 220.019 22.1704L218.052 25.6536ZM221.574 29.1843C222.435 30.6675 222.888 32.3825 222.888 34.384H226.888C226.888 31.7508 226.284 29.3299 225.033 27.1757L221.574 29.1843ZM222.888 34.384C222.888 36.3855 222.435 38.1005 221.574 39.5837L225.033 41.5923C226.284 39.4381 226.888 37.0172 226.888 34.384H222.888ZM221.562 39.6048C220.712 41.1112 219.544 42.2919 218.031 43.1704L220.04 46.6296C222.164 45.3961 223.842 43.7021 225.045 41.5712L221.562 39.6048ZM218.052 43.1584C216.562 43.9998 214.853 44.44 212.876 44.44V48.44C215.474 48.44 217.872 47.8535 220.019 46.6416L218.052 43.1584ZM212.876 43.644C214.479 43.644 215.977 43.2475 217.315 42.4216L215.213 39.0184C214.555 39.4245 213.795 39.644 212.876 39.644V43.644ZM217.35 42.3991C218.65 41.5583 219.662 40.4255 220.375 39.0376L216.817 37.2104C216.415 37.9931 215.872 38.591 215.177 39.0409L217.35 42.3991ZM220.365 39.0555C221.125 37.613 221.467 36.0261 221.431 34.3415L217.432 34.4265C217.455 35.4992 217.24 36.4056 216.826 37.1925L220.365 39.0555ZM221.431 34.4257C221.467 32.7212 221.128 31.1238 220.355 29.693L216.836 31.595C217.236 32.3349 217.455 33.2308 217.432 34.3423L221.431 34.4257ZM220.385 29.7496C219.672 28.3244 218.648 27.1702 217.315 26.3464L215.213 29.7496C215.874 30.1578 216.405 30.7342 216.807 31.5384L220.385 29.7496ZM217.315 26.3464C215.977 25.5205 214.479 25.124 212.876 25.124V29.124C213.795 29.124 214.555 29.3435 215.213 29.7496L217.315 26.3464ZM212.876 25.124C211.254 25.124 209.738 25.5447 208.379 26.3987L210.508 29.7853C211.203 29.3486 211.975 29.124 212.876 29.124V25.124ZM208.393 26.3904C207.059 27.2142 206.035 28.3684 205.323 29.7936L208.901 31.5824C209.303 30.7782 209.834 30.2018 210.495 29.7936L208.393 26.3904ZM205.333 29.7744C204.612 31.1773 204.276 32.7293 204.276 34.384H208.276C208.276 33.2814 208.497 32.3694 208.891 31.6016L205.333 29.7744ZM204.276 34.384C204.276 36.0397 204.612 37.5976 205.323 39.0184L208.901 37.2296C208.496 36.4211 208.276 35.4856 208.276 34.384H204.276ZM205.333 39.0376C206.045 40.4255 207.058 41.5583 208.357 42.3991L210.53 39.0409C209.835 38.591 209.293 37.9931 208.891 37.2104L205.333 39.0376ZM208.415 42.435C209.769 43.2476 211.272 43.644 212.876 43.644V39.644C211.957 39.644 211.172 39.4244 210.473 39.005L208.415 42.435ZM261.364 46L259.507 46.7428L260.01 48H261.364V46ZM249.044 15.2V13.2H246.09L247.187 15.9428L249.044 15.2ZM255.248 15.2L257.112 14.4749L256.616 13.2H255.248V15.2ZM262.112 32.844L263.977 32.122L263.976 32.1189L262.112 32.844ZM263.036 35.308L261.155 35.9854L261.159 35.9979L261.164 36.0102L263.036 35.308ZM263.74 37.288L261.843 37.9205L261.848 37.9346L261.853 37.9487L263.74 37.288ZM264.312 39.004L262.405 39.6063L262.405 39.6063L264.312 39.004ZM264.84 40.764V42.764H267.492L266.763 40.2146L264.84 40.764ZM263.652 40.764L261.716 40.2621L261.068 42.764H263.652V40.764ZM264.312 38.432L266.224 39.0202L266.227 39.0102L266.23 39.0002L264.312 38.432ZM265.104 35.924L263.219 35.2552L263.213 35.2733L263.207 35.2915L265.104 35.924ZM266.248 32.844L268.115 33.562L268.122 33.5452L268.128 33.5282L266.248 32.844ZM272.672 15.2V13.2H271.272L270.793 14.5158L272.672 15.2ZM278.92 15.2L280.776 15.9451L281.878 13.2H278.92V15.2ZM266.556 46V48H267.909L268.412 46.7451L266.556 46ZM263.221 45.2572L250.901 14.4572L247.187 15.9428L259.507 46.7428L263.221 45.2572ZM249.044 17.2H255.248V13.2H249.044V17.2ZM253.384 15.9251L260.248 33.5691L263.976 32.1189L257.112 14.4749L253.384 15.9251ZM260.247 33.566C260.595 34.464 260.897 35.2702 261.155 35.9854L264.918 34.6306C264.648 33.8792 264.334 33.0426 263.977 32.122L260.247 33.566ZM261.164 36.0102C261.42 36.6946 261.647 37.3312 261.843 37.9205L265.638 36.6555C265.423 36.0128 265.18 35.3294 264.909 34.6058L261.164 36.0102ZM261.853 37.9487C262.052 38.5172 262.236 39.0697 262.405 39.6063L266.22 38.4017C266.037 37.8236 265.84 37.2321 265.628 36.6273L261.853 37.9487ZM262.405 39.6063C262.575 40.1445 262.746 40.7135 262.917 41.3134L266.763 40.2146C266.583 39.5825 266.402 38.9782 266.22 38.4017L262.405 39.6063ZM264.84 38.764H263.652V42.764H264.84V38.764ZM265.588 41.2659C265.786 40.5021 265.998 39.7536 266.224 39.0202L262.401 37.8438C262.157 38.6358 261.929 39.4419 261.716 40.2621L265.588 41.2659ZM266.23 39.0002C266.458 38.2321 266.715 37.4177 267.002 36.5565L263.207 35.2915C262.907 36.1903 262.637 37.0479 262.395 37.8638L266.23 39.0002ZM266.989 36.5928C267.305 35.7036 267.68 34.6938 268.115 33.562L264.382 32.126C263.937 33.2822 263.549 34.3257 263.219 35.2552L266.989 36.5928ZM268.128 33.5282L274.552 15.8842L270.793 14.5158L264.369 32.1598L268.128 33.5282ZM272.672 17.2H278.92V13.2H272.672V17.2ZM277.064 14.4549L264.7 45.2549L268.412 46.7451L280.776 15.9451L277.064 14.4549ZM266.556 44H261.364V48H266.556V44ZM287.889 46H285.889V48H287.889V46ZM287.889 22.812V20.812H285.889V22.812H287.889ZM293.257 22.812H295.257V20.812H293.257V22.812ZM293.257 46V48H295.257V46H293.257ZM287.977 17.092L286.6 18.542L286.637 18.5772L286.676 18.6105L287.977 17.092ZM288.021 12.516L289.363 13.9991L289.382 13.9819L289.401 13.9643L288.021 12.516ZM293.037 12.472L291.66 13.922L291.697 13.9572L291.736 13.9905L293.037 12.472ZM289.889 46V22.812H285.889V46H289.889ZM287.889 24.812H293.257V20.812H287.889V24.812ZM291.257 22.812V46H295.257V22.812H291.257ZM293.257 44H287.889V48H293.257V44ZM290.529 15.884C289.759 15.884 289.426 15.6992 289.279 15.5735L286.676 18.6105C287.761 19.5408 289.129 19.884 290.529 19.884V15.884ZM289.355 15.642C289.255 15.5469 289.097 15.3455 289.097 14.76H285.097C285.097 16.1692 285.527 17.5224 286.6 18.542L289.355 15.642ZM289.097 14.76C289.097 14.3051 289.223 14.1259 289.363 13.9991L286.68 11.0329C285.588 12.0208 285.097 13.3376 285.097 14.76H289.097ZM289.401 13.9643C289.56 13.8124 289.857 13.636 290.529 13.636V9.636C289.09 9.636 287.715 10.0462 286.642 11.0677L289.401 13.9643ZM290.529 13.636C291.281 13.636 291.557 13.8243 291.66 13.922L294.415 11.022C293.344 10.005 291.949 9.636 290.529 9.636V13.636ZM291.736 13.9905C291.809 14.0529 291.961 14.2007 291.961 14.76H295.961C295.961 13.3246 295.498 11.9471 294.339 10.9535L291.736 13.9905ZM291.961 14.76C291.961 15.1641 291.848 15.3746 291.658 15.5557L294.417 18.4523C295.459 17.46 295.961 16.1746 295.961 14.76H291.961ZM291.658 15.5557C291.499 15.7076 291.202 15.884 290.529 15.884V19.884C291.969 19.884 293.344 19.4738 294.417 18.4523L291.658 15.5557ZM308.613 44.856L307.571 46.5633L307.571 46.5633L308.613 44.856ZM304.521 40.544L306.275 39.5823L306.275 39.5823L304.521 40.544ZM308.613 23.912L309.655 25.6193L308.613 23.912ZM320.097 23.56L319.228 25.3611L319.246 25.37L319.265 25.3786L320.097 23.56ZM324.057 26.816L325.606 28.0814L326.536 26.9425L325.727 25.7148L324.057 26.816ZM321.109 30.424L319.482 31.5865L321.002 33.7155L322.658 31.6894L321.109 30.424ZM317.237 27.564L316.519 29.4307L316.531 29.4352L316.542 29.4395L317.237 27.564ZM311.473 28.092L312.524 29.7936L312.531 29.7895L312.537 29.7853L311.473 28.092ZM309.097 30.688L310.857 31.639L310.862 31.6293L310.867 31.6195L309.097 30.688ZM309.097 38.08L307.338 39.031L307.348 39.0492L307.358 39.0672L309.097 38.08ZM311.561 40.676L310.497 42.3693L310.497 42.3693L311.561 40.676ZM317.237 41.292L317.87 43.1894L317.905 43.1777L317.939 43.1647L317.237 41.292ZM319.261 40.192L318.119 38.5502L318.102 38.5622L318.085 38.5745L319.261 40.192ZM321.109 38.432L322.658 37.1666L321.085 35.2409L319.541 37.1906L321.109 38.432ZM324.057 42.04L325.657 43.24L326.597 41.9872L325.606 40.7746L324.057 42.04ZM319.965 45.208L320.811 47.0204L319.965 45.208ZM314.465 44.44C312.635 44.44 311.049 43.9997 309.655 43.1487L307.571 46.5633C309.638 47.8243 311.954 48.44 314.465 48.44V44.44ZM309.655 43.1487C308.23 42.2791 307.108 41.1019 306.275 39.5823L302.767 41.5057C303.929 43.6234 305.535 45.3209 307.571 46.5633L309.655 43.1487ZM306.275 39.5823C305.455 38.088 305.025 36.3712 305.025 34.384H301.025C301.025 36.9728 301.592 39.3627 302.767 41.5057L306.275 39.5823ZM305.025 34.384C305.025 32.3968 305.455 30.68 306.275 29.1857L302.767 27.2623C301.592 29.4053 301.025 31.7952 301.025 34.384H305.025ZM306.275 29.1857C307.108 27.6661 308.23 26.4889 309.655 25.6193L307.571 22.2047C305.535 23.4471 303.929 25.1446 302.767 27.2623L306.275 29.1857ZM309.655 25.6193C311.049 24.7683 312.635 24.328 314.465 24.328V20.328C311.954 20.328 309.638 20.9437 307.571 22.2047L309.655 25.6193ZM314.465 24.328C316.244 24.328 317.82 24.6818 319.228 25.3611L320.967 21.7589C318.971 20.7956 316.793 20.328 314.465 20.328V24.328ZM319.265 25.3786C320.708 26.0389 321.715 26.8967 322.388 27.9172L325.727 25.7148C324.581 23.9779 322.948 22.6651 320.929 21.7414L319.265 25.3786ZM322.508 25.5506L319.56 29.1586L322.658 31.6894L325.606 28.0814L322.508 25.5506ZM322.737 29.2615C322.162 28.4574 321.451 27.7536 320.626 27.1436L318.248 30.3604C318.772 30.7477 319.176 31.1586 319.482 31.5865L322.737 29.2615ZM320.626 27.1436C319.799 26.5324 318.899 26.0467 317.932 25.6885L316.542 29.4395C317.159 29.6679 317.726 29.9743 318.248 30.3604L320.626 27.1436ZM317.955 25.6973C316.989 25.3259 315.998 25.124 314.993 25.124V29.124C315.454 29.124 315.96 29.2154 316.519 29.4307L317.955 25.6973ZM314.993 25.124C313.331 25.124 311.782 25.5353 310.409 26.3987L312.537 29.7853C313.217 29.358 314.015 29.124 314.993 29.124V25.124ZM310.422 26.3904C309.098 27.2082 308.068 28.3499 307.327 29.7565L310.867 31.6195C311.3 30.7967 311.854 30.2078 312.524 29.7936L310.422 26.3904ZM307.338 29.737C306.575 31.1474 306.217 32.7129 306.217 34.384H310.217C310.217 33.2977 310.446 32.3992 310.857 31.639L307.338 29.737ZM306.217 34.384C306.217 36.0551 306.575 37.6206 307.338 39.031L310.857 37.129C310.446 36.3688 310.217 35.4703 310.217 34.384H306.217ZM307.358 39.0672C308.132 40.4314 309.182 41.5427 310.497 42.3693L312.625 38.9827C311.887 38.5186 311.294 37.8993 310.836 37.0928L307.358 39.0672ZM310.497 42.3693C311.855 43.2233 313.371 43.644 314.993 43.644V39.644C314.092 39.644 313.32 39.4194 312.625 38.9827L310.497 42.3693ZM314.993 43.644C315.986 43.644 316.948 43.4964 317.87 43.1894L316.605 39.3946C316.118 39.5569 315.585 39.644 314.993 39.644V43.644ZM317.939 43.1647C318.822 42.8336 319.655 42.3784 320.437 41.8095L318.085 38.5745C317.576 38.9443 317.06 39.2224 316.535 39.4193L317.939 43.1647ZM320.403 41.8338C321.253 41.2428 322.009 40.5169 322.677 39.6734L319.541 37.1906C319.094 37.7551 318.619 38.2026 318.119 38.5502L320.403 41.8338ZM319.56 39.6974L322.508 43.3054L325.606 40.7746L322.658 37.1666L319.56 39.6974ZM322.457 40.84C321.723 41.8191 320.642 42.6852 319.119 43.3956L320.811 47.0204C322.808 46.0882 324.455 44.8422 325.657 43.24L322.457 40.84ZM319.119 43.3956C317.619 44.0958 316.074 44.44 314.465 44.44V48.44C316.67 48.44 318.791 47.9629 320.811 47.0204L319.119 43.3956ZM335.149 46H333.149V48H335.149V46ZM335.149 16.916V14.916H333.149V16.916H335.149ZM340.517 16.916H342.517V14.916H340.517V16.916ZM340.517 46V48H342.517V46H340.517ZM330.573 27.828H328.573V29.828H330.573V27.828ZM330.573 22.812V20.812H328.573V22.812H330.573ZM345.577 22.812H347.577V20.812H345.577V22.812ZM345.577 27.828V29.828H347.577V27.828H345.577ZM337.149 46V16.916H333.149V46H337.149ZM335.149 18.916H340.517V14.916H335.149V18.916ZM338.517 16.916V46H342.517V16.916H338.517ZM340.517 44H335.149V48H340.517V44ZM332.573 27.828V22.812H328.573V27.828H332.573ZM330.573 24.812H345.577V20.812H330.573V24.812ZM343.577 22.812V27.828H347.577V22.812H343.577ZM345.577 25.828H330.573V29.828H345.577V25.828ZM358.24 44.9L357.235 46.6296L357.246 46.6357L357.256 46.6416L358.24 44.9ZM353.928 40.588L352.186 41.5712L352.192 41.5818L352.198 41.5923L353.928 40.588ZM353.928 28.18L352.198 27.1757L352.192 27.1862L352.186 27.1968L353.928 28.18ZM358.24 23.912L359.223 25.6536L359.233 25.6477L359.244 25.6416L358.24 23.912ZM370.604 23.912L369.599 25.6416L369.61 25.6477L369.62 25.6536L370.604 23.912ZM374.872 28.18L373.13 29.1632L373.136 29.1738L373.142 29.1843L374.872 28.18ZM374.872 40.588L373.142 39.5837L373.136 39.5942L373.13 39.6048L374.872 40.588ZM370.604 44.9L371.587 46.6416L371.597 46.6357L371.608 46.6296L370.604 44.9ZM367.832 40.72L368.883 42.4216L368.901 42.4106L368.918 42.3991L367.832 40.72ZM370.164 38.124L368.394 37.1925L368.389 37.2014L368.385 37.2104L370.164 38.124ZM371 34.384L369 34.3423L368.999 34.3844L369 34.4265L371 34.384ZM370.164 30.644L368.375 31.5384L368.389 31.567L368.404 31.595L370.164 30.644ZM367.832 28.048L368.883 26.3464L368.883 26.3464L367.832 28.048ZM361.012 28.092L362.063 29.7936L362.069 29.7895L362.076 29.7853L361.012 28.092ZM358.68 30.688L360.459 31.6016L360.464 31.592L360.468 31.5824L358.68 30.688ZM358.68 38.124L356.891 39.0184L356.896 39.028L356.901 39.0376L358.68 38.124ZM361.012 40.72L359.925 42.3991L359.954 42.4176L359.983 42.435L361.012 40.72ZM364.444 44.44C362.432 44.44 360.71 43.9976 359.223 43.1584L357.256 46.6416C359.407 47.8557 361.82 48.44 364.444 48.44V44.44ZM359.244 43.1704C357.726 42.289 356.539 41.1017 355.657 39.5837L352.198 41.5923C353.429 43.7116 355.116 45.399 357.235 46.6296L359.244 43.1704ZM355.669 39.6048C354.83 38.1181 354.388 36.3954 354.388 34.384H350.388C350.388 37.0072 350.972 39.4206 352.186 41.5712L355.669 39.6048ZM354.388 34.384C354.388 32.3726 354.83 30.6499 355.669 29.1632L352.186 27.1968C350.972 29.3474 350.388 31.7608 350.388 34.384H354.388ZM355.657 29.1843C356.536 27.6712 357.716 26.504 359.223 25.6536L357.256 22.1704C355.126 23.3733 353.431 25.0515 352.198 27.1757L355.657 29.1843ZM359.244 25.6416C360.727 24.7804 362.442 24.328 364.444 24.328V20.328C361.81 20.328 359.39 20.9316 357.235 22.1824L359.244 25.6416ZM364.444 24.328C366.411 24.328 368.112 24.7781 369.599 25.6416L371.608 22.1824C369.458 20.9339 367.052 20.328 364.444 20.328V24.328ZM369.62 25.6536C371.122 26.5013 372.282 27.6617 373.13 29.1632L376.613 27.1968C375.408 25.061 373.723 23.3761 371.587 22.1704L369.62 25.6536ZM373.142 29.1843C374.003 30.6675 374.456 32.3825 374.456 34.384H378.456C378.456 31.7508 377.852 29.3299 376.601 27.1757L373.142 29.1843ZM374.456 34.384C374.456 36.3855 374.003 38.1005 373.142 39.5837L376.601 41.5923C377.852 39.4381 378.456 37.0172 378.456 34.384H374.456ZM373.13 39.6048C372.28 41.1112 371.112 42.2919 369.599 43.1704L371.608 46.6296C373.732 45.3961 375.41 43.7021 376.613 41.5712L373.13 39.6048ZM369.62 43.1584C368.13 43.9998 366.421 44.44 364.444 44.44V48.44C367.042 48.44 369.44 47.8535 371.587 46.6416L369.62 43.1584ZM364.444 43.644C366.047 43.644 367.545 43.2475 368.883 42.4216L366.781 39.0184C366.123 39.4245 365.363 39.644 364.444 39.644V43.644ZM368.918 42.3991C370.218 41.5583 371.23 40.4255 371.943 39.0376L368.385 37.2104C367.983 37.9931 367.44 38.591 366.745 39.0409L368.918 42.3991ZM371.933 39.0555C372.693 37.613 373.035 36.0261 372.999 34.3415L369 34.4265C369.023 35.4992 368.808 36.4056 368.394 37.1925L371.933 39.0555ZM372.999 34.4257C373.035 32.7212 372.696 31.1238 371.923 29.693L368.404 31.595C368.804 32.3349 369.023 33.2308 369 34.3423L372.999 34.4257ZM371.952 29.7496C371.24 28.3244 370.216 27.1702 368.883 26.3464L366.781 29.7496C367.442 30.1578 367.973 30.7342 368.375 31.5384L371.952 29.7496ZM368.883 26.3464C367.545 25.5205 366.047 25.124 364.444 25.124V29.124C365.363 29.124 366.123 29.3435 366.781 29.7496L368.883 26.3464ZM364.444 25.124C362.822 25.124 361.306 25.5447 359.947 26.3987L362.076 29.7853C362.771 29.3486 363.543 29.124 364.444 29.124V25.124ZM359.961 26.3904C358.627 27.2142 357.603 28.3684 356.891 29.7936L360.468 31.5824C360.871 30.7782 361.402 30.2018 362.063 29.7936L359.961 26.3904ZM356.901 29.7744C356.18 31.1773 355.844 32.7293 355.844 34.384H359.844C359.844 33.2814 360.065 32.3694 360.459 31.6016L356.901 29.7744ZM355.844 34.384C355.844 36.0397 356.18 37.5976 356.891 39.0184L360.468 37.2296C360.064 36.4211 359.844 35.4856 359.844 34.384H355.844ZM356.901 39.0376C357.613 40.4255 358.626 41.5583 359.925 42.3991L362.098 39.0409C361.403 38.591 360.861 37.9931 360.459 37.2104L356.901 39.0376ZM359.983 42.435C361.337 43.2476 362.84 43.644 364.444 43.644V39.644C363.525 39.644 362.74 39.4244 362.041 39.005L359.983 42.435ZM385.698 46H383.698V48H385.698V46ZM385.698 22.812V20.812H383.698V22.812H385.698ZM390.978 22.812L392.978 22.7882L392.954 20.812H390.978V22.812ZM391.066 30.204L389.222 30.9801L393.066 30.1802L391.066 30.204ZM390.362 28.532L388.433 28.0017L388.25 28.6696L388.518 29.3081L390.362 28.532ZM392.034 25.364L393.562 26.6537L393.562 26.6537L392.034 25.364ZM394.762 23.164L395.676 24.9426L395.686 24.9377L395.695 24.9328L394.762 23.164ZM399.426 22.46L399.033 24.4212L399.045 24.4235L399.057 24.4257L399.426 22.46ZM400.57 22.768L402.515 23.2325L402.916 21.5525L401.312 20.911L400.57 22.768ZM399.162 28.664L398.267 30.4529L400.522 31.58L401.107 29.1285L399.162 28.664ZM397.93 28.268L397.414 30.2005L397.487 30.2199L397.561 30.2337L397.93 28.268ZM394.41 28.532L395.167 30.3831L395.187 30.3748L395.207 30.3661L394.41 28.532ZM392.694 29.676L391.279 28.2618L391.258 28.2832L391.237 28.3053L392.694 29.676ZM391.55 31.436L393.37 32.2636L393.377 32.2486L393.384 32.2335L391.55 31.436ZM391.11 46V48H393.11V46H391.11ZM387.698 46V22.812H383.698V46H387.698ZM385.698 24.812H390.978V20.812H385.698V24.812ZM388.978 22.8358L389.066 30.2278L393.066 30.1802L392.978 22.7882L388.978 22.8358ZM392.909 29.4279L392.205 27.7559L388.518 29.3081L389.222 30.9801L392.909 29.4279ZM392.29 29.0623C392.535 28.1707 392.955 27.3733 393.562 26.6537L390.505 24.0743C389.528 25.232 388.833 26.5466 388.433 28.0017L392.29 29.0623ZM393.562 26.6537C394.195 25.9039 394.899 25.3422 395.676 24.9426L393.847 21.3854C392.571 22.0418 391.456 22.9468 390.505 24.0743L393.562 26.6537ZM395.695 24.9328C396.485 24.5162 397.251 24.328 398.018 24.328V20.328C396.555 20.328 395.151 20.6971 393.828 21.3952L395.695 24.9328ZM398.018 24.328C398.399 24.328 398.736 24.3617 399.033 24.4212L399.818 20.4988C399.235 20.3823 398.634 20.328 398.018 20.328V24.328ZM399.057 24.4257C399.456 24.5006 399.699 24.5738 399.827 24.625L401.312 20.911C400.854 20.7275 400.334 20.5954 399.794 20.4943L399.057 24.4257ZM398.624 22.3035L397.216 28.1994L401.107 29.1285L402.515 23.2325L398.624 22.3035ZM400.056 26.8751C399.507 26.6006 398.913 26.4175 398.298 26.3023L397.561 30.2337C397.885 30.2945 398.112 30.3754 398.267 30.4529L400.056 26.8751ZM398.445 26.3355C397.832 26.172 397.204 26.092 396.566 26.092V30.092C396.866 30.092 397.148 30.1293 397.414 30.2005L398.445 26.3355ZM396.566 26.092C395.539 26.092 394.548 26.2911 393.612 26.6979L395.207 30.3661C395.621 30.1862 396.067 30.092 396.566 30.092V26.092ZM393.652 26.6809C392.758 27.0466 391.964 27.5775 391.279 28.2618L394.108 31.0902C394.421 30.7771 394.77 30.5454 395.167 30.3831L393.652 26.6809ZM391.237 28.3053C390.599 28.9839 390.094 29.7682 389.716 30.6385L393.384 32.2335C393.592 31.7545 393.85 31.3654 394.15 31.0467L391.237 28.3053ZM389.729 30.6084C389.304 31.5426 389.11 32.5481 389.11 33.592H393.11C393.11 33.0519 393.208 32.6201 393.37 32.2636L389.729 30.6084ZM389.11 33.592V46H393.11V33.592H389.11ZM391.11 44H385.698V48H391.11V44ZM412.181 56.12L410.344 55.3296L409.144 58.12H412.181V56.12ZM417.065 44.768L419.065 44.7439L415.228 43.9776L417.065 44.768ZM417.109 48.42L415.283 49.2358L419.109 48.3959L417.109 48.42ZM405.669 22.812V20.812H402.585L403.843 23.6278L405.669 22.812ZM411.873 22.812L413.717 22.0364L413.202 20.812H411.873V22.812ZM418.297 38.08L416.454 38.8556L416.491 38.9439L416.536 39.0282L418.297 38.08ZM418.913 39.62L417.007 40.2264L417.012 40.2395L417.016 40.2525L418.913 39.62ZM419.441 41.424L420.119 43.3058L421.82 42.6933L421.382 40.9389L419.441 41.424ZM418.341 41.82L416.465 41.1286L414.981 45.1553L419.019 43.7018L418.341 41.82ZM418.957 40.016L417.078 39.3325L417.064 39.3708L417.051 39.4096L418.957 40.016ZM419.661 38.08L421.541 38.7635L421.545 38.753L419.661 38.08ZM425.117 22.812V20.812H423.708L423.234 22.139L425.117 22.812ZM431.365 22.812L433.212 23.5795L434.362 20.812H431.365V22.812ZM421.729 46L419.882 45.2325L419.873 45.2553L419.864 45.2782L421.729 46ZM417.813 56.12V58.12H419.184L419.678 56.8418L417.813 56.12ZM414.018 56.9104L418.902 45.5584L415.228 43.9776L410.344 55.3296L414.018 56.9104ZM415.065 44.7921L415.109 48.4441L419.109 48.3959L419.065 44.7439L415.065 44.7921ZM418.935 47.6042L407.495 21.9962L403.843 23.6278L415.283 49.2358L418.935 47.6042ZM405.669 24.812H411.873V20.812H405.669V24.812ZM410.03 23.5876L416.454 38.8556L420.141 37.3044L413.717 22.0364L410.03 23.5876ZM416.536 39.0282C416.66 39.2573 416.821 39.6412 417.007 40.2264L420.819 39.0136C420.595 38.3081 420.345 37.6653 420.058 37.1318L416.536 39.0282ZM417.016 40.2525C417.206 40.8234 417.368 41.3755 417.501 41.9091L421.382 40.9389C421.222 40.2991 421.031 39.6486 420.811 38.9875L417.016 40.2525ZM418.764 39.5422L417.664 39.9382L419.019 43.7018L420.119 43.3058L418.764 39.5422ZM420.218 42.5114C420.435 41.9224 420.65 41.2924 420.863 40.6224L417.051 39.4096C416.854 40.0302 416.658 40.6029 416.465 41.1286L420.218 42.5114ZM420.837 40.6995C421.071 40.0542 421.306 39.4088 421.541 38.7635L417.782 37.3965C417.547 38.0418 417.312 38.6872 417.078 39.3325L420.837 40.6995ZM421.545 38.753L427.001 23.485L423.234 22.139L417.778 37.407L421.545 38.753ZM425.117 24.812H431.365V20.812H425.117V24.812ZM429.518 22.0445L419.882 45.2325L423.576 46.7675L433.212 23.5795L429.518 22.0445ZM419.864 45.2782L415.948 55.3982L419.678 56.8418L423.594 46.7218L419.864 45.2782ZM417.813 54.12H412.181V58.12H417.813V54.12Z" fill="black"/>
</g>
<defs>
<filter id="filter0_di_413_153" x="0.561768" y="0.636002" width="445.803" height="74.484" filterUnits="userSpaceOnUse" color-interpolation-filters="sRGB">
<feFlood flood-opacity="0" result="BackgroundImageFix"/>
<feColorMatrix in="SourceAlpha" type="matrix" values="0 0 0 0 0 0 0 0 0 0 0 0 0 0 0 0 0 0 127 0" result="hardAlpha"/>
<feOffset dy="4"/>
<feGaussianBlur stdDeviation="7.5"/>
<feComposite in2="hardAlpha" operator="out"/>
<feColorMatrix type="matrix" values="0 0 0 0 0 0 0 0 0 0 0 0 0 0 0 0 0 0 0.25 0"/>
<feBlend mode="normal" in2="BackgroundImageFix" result="effect1_dropShadow_413_153"/>
<feBlend mode="normal" in="SourceGraphic" in2="effect1_dropShadow_413_153" result="shape"/>
<feColorMatrix in="SourceAlpha" type="matrix" values="0 0 0 0 0 0 0 0 0 0 0 0 0 0 0 0 0 0 127 0" result="hardAlpha"/>
<feOffset dy="4"/>
<feGaussianBlur stdDeviation="5"/>
<feComposite in2="hardAlpha" operator="arithmetic" k2="-1" k3="1"/>
<feColorMatrix type="matrix" values="0 0 0 0 0 0 0 0 0 0 0 0 0 0 0 0 0 0 0.25 0"/>
<feBlend mode="normal" in2="shape" result="effect2_innerShadow_413_153"/>
</filter>
</defs>
</svg>
