<svg width="606" height="208" viewBox="0 0 606 208" fill="none" xmlns="http://www.w3.org/2000/svg">
<path d="M9.83338 89.0001H38.1083V64.8335H44.15L60.0999 89.0001H92.3623L72.6665 60.2418C82.9374 55.2877 89.3415 46.7085 89.3415 34.3836V34.1419C89.3415 25.4419 86.6832 19.1586 81.6082 14.0836C75.6874 8.16281 66.1416 4.41699 51.1583 4.41699H9.83338V89.0001ZM38.1083 44.6544V28.1003H50.4333C56.9583 28.1003 61.1874 30.7586 61.1874 36.1961V36.4377C61.1874 41.6336 57.0791 44.6544 50.3124 44.6544H38.1083Z" fill="url(#paint0_linear_1607_12455)"/>
<path d="M145.147 90.8126C171.247 90.8126 191.427 71.2376 191.427 46.7085V46.4669C191.427 21.9378 171.489 2.60449 145.389 2.60449C119.289 2.60449 99.1101 22.1794 99.1101 46.7085V46.9502C99.1101 71.4793 119.048 90.8126 145.147 90.8126ZM145.389 65.8002C134.514 65.8002 127.627 56.7377 127.627 46.7085V46.4669C127.627 36.5586 134.393 27.6169 145.147 27.6169C156.022 27.6169 162.91 36.6794 162.91 46.7085V46.9502C162.91 56.8585 156.143 65.8002 145.389 65.8002Z" fill="url(#paint1_linear_1607_12455)"/>
<path d="M244.777 90.6918C270.031 90.6918 286.827 79.3335 286.827 50.4544V4.41699H258.069V51.3002C258.069 61.571 252.631 65.6793 245.019 65.6793C237.406 65.6793 231.969 61.2085 231.969 50.696V4.41699H203.211V51.0585C203.211 79.0918 219.523 90.6918 244.777 90.6918Z" fill="url(#paint2_linear_1607_12455)"/>
<path d="M322.203 89.0001H350.478V28.3419H375.369V4.41699H297.311V28.3419H322.203V89.0001Z" fill="url(#paint3_linear_1607_12455)"/>
<path d="M386.592 89.0001H459.333V65.8002H414.383V56.6168H455.708V36.1961H414.383V27.6169H458.729V4.41699H386.592V89.0001Z" fill="url(#paint4_linear_1607_12455)"/>
<path d="M37.9875 204.604H65.0541L99.3706 119.417H68.1957L51.7624 166.904L35.3291 119.417H3.6709L37.9875 204.604Z" fill="url(#paint5_linear_1607_12455)"/>
<path d="M107.893 204H136.168V119.417H107.893V204Z" fill="url(#paint6_linear_1607_12455)"/>
<path d="M192.882 205.813C213.907 205.813 225.749 195.542 232.878 182.975L209.557 169.804C206.053 176.088 201.582 180.438 193.607 180.438C184.303 180.438 177.778 172.704 177.778 161.709V161.467C177.778 151.317 184.061 142.979 193.607 142.979C201.34 142.979 205.811 147.209 208.953 153.25L232.274 139.596C225.145 126.667 212.578 117.604 193.97 117.604C168.716 117.604 149.02 136.454 149.02 161.709V161.95C149.02 188.171 169.441 205.813 192.882 205.813Z" fill="url(#paint7_linear_1607_12455)"/>
<path d="M264.736 204H293.011V143.342H317.903V119.417H239.845V143.342H264.736V204Z" fill="url(#paint8_linear_1607_12455)"/>
<path d="M369.571 205.813C395.671 205.813 415.85 186.238 415.85 161.709V161.467C415.85 136.938 395.913 117.604 369.813 117.604C343.713 117.604 323.534 137.179 323.534 161.709V161.95C323.534 186.479 343.471 205.813 369.571 205.813ZM369.813 180.8C358.938 180.8 352.05 171.738 352.05 161.709V161.467C352.05 151.559 358.817 142.617 369.571 142.617C380.446 142.617 387.334 151.679 387.334 161.709V161.95C387.334 171.859 380.567 180.8 369.813 180.8Z" fill="url(#paint9_linear_1607_12455)"/>
<path d="M428.359 204H456.634V179.833H462.676L478.626 204H510.888L491.192 175.242C501.463 170.288 507.867 161.709 507.867 149.384V149.142C507.867 140.442 505.209 134.159 500.134 129.084C494.213 123.163 484.667 119.417 469.684 119.417H428.359V204ZM456.634 159.654V143.1H468.959C475.484 143.1 479.713 145.759 479.713 151.196V151.438C479.713 156.634 475.605 159.654 468.838 159.654H456.634Z" fill="url(#paint10_linear_1607_12455)"/>
<path d="M541.635 204H569.909V173.671L601.809 119.417H570.514L555.893 147.209L541.393 119.417H509.735L541.635 174.034V204Z" fill="url(#paint11_linear_1607_12455)"/>
<path fill-rule="evenodd" clip-rule="evenodd" d="M74.4585 59.3189C83.6769 54.2534 89.3415 45.9751 89.3415 34.3836V34.1419C89.3415 25.4419 86.6832 19.1586 81.6082 14.0836C75.6874 8.16281 66.1416 4.41699 51.1583 4.41699H9.83338V89.0001H38.1083V64.8335H44.15L60.0999 89.0001H92.3623L72.6665 60.2418C73.2777 59.947 73.8752 59.6394 74.4585 59.3189ZM88.5685 87.0001L69.7013 59.4516L71.7976 58.4404C81.4632 53.7782 87.3415 45.8493 87.3415 34.3836V34.1419C87.3415 25.9224 84.86 20.1639 80.194 15.4978C74.7775 10.0813 65.8272 6.41699 51.1583 6.41699H11.8334V87.0001H36.1083V62.8335H45.2263L61.1762 87.0001H88.5685ZM36.1083 46.6544V26.1003H50.4333C53.9231 26.1003 57.0827 26.8043 59.4234 28.4843C61.8609 30.2338 63.1874 32.8855 63.1874 36.1961V36.4377C63.1874 39.6267 61.8939 42.2896 59.4874 44.0945C57.1537 45.8447 53.9592 46.6544 50.3124 46.6544H36.1083ZM348.478 26.3419H373.369V6.41699H299.311V26.3419H324.203V87.0001H348.478V26.3419ZM350.478 89.0001H322.203V28.3419H297.311V4.41699H375.369V28.3419H350.478V89.0001ZM412.383 67.8002V54.6168H453.708V38.1961H412.383V25.6169H456.729V6.41699H388.592V87.0001H457.333V67.8002H412.383ZM459.333 65.8002V89.0001H386.592V4.41699H458.729V27.6169H414.383V36.1961H455.708V56.6168H414.383V65.8002H459.333ZM35.3291 119.417H3.6709L37.9875 204.604H65.0541L99.3706 119.417H68.1957L51.7624 166.904L35.3291 119.417ZM69.62 121.417L51.7624 173.02L33.9049 121.417H6.63275L39.338 202.604H63.7036L96.4088 121.417H69.62ZM291.011 141.342H315.903V121.417H241.845V141.342H266.736V202H291.011V141.342ZM293.011 204H264.736V143.342H239.845V119.417H317.903V143.342H293.011V204ZM492.984 174.319C502.203 169.253 507.867 160.975 507.867 149.384V149.142C507.867 140.442 505.209 134.159 500.134 129.084C494.213 123.163 484.667 119.417 469.684 119.417H428.359V204H456.634V179.833H462.676L478.626 204H510.888L491.192 175.242C491.804 174.947 492.401 174.639 492.984 174.319ZM507.094 202L488.227 174.452L490.324 173.44C499.989 168.778 505.867 160.849 505.867 149.384V149.142C505.867 140.922 503.386 135.164 498.72 130.498C493.303 125.081 484.353 121.417 469.684 121.417H430.359V202H454.634V177.833H463.752L479.702 202H507.094ZM454.634 161.654V141.1H468.959C472.449 141.1 475.609 141.804 477.949 143.484C480.387 145.234 481.713 147.885 481.713 151.196V151.438C481.713 154.627 480.42 157.29 478.013 159.094C475.68 160.845 472.485 161.654 468.838 161.654H454.634ZM541.393 119.417H509.735L541.635 174.034V204H569.909V173.671L601.809 119.417H570.514L555.893 147.209L541.393 119.417ZM571.721 121.417L555.885 151.518L540.18 121.417H513.219L543.635 173.492V202H567.909V173.127L598.313 121.417H571.721ZM145.147 88.8126C170.224 88.8126 189.427 70.0534 189.427 46.7085V46.4669C189.427 23.1226 170.466 4.60449 145.389 4.60449C120.312 4.60449 101.11 23.3637 101.11 46.7085V46.9502C101.11 70.2945 120.07 88.8126 145.147 88.8126ZM145.389 67.8002C133.168 67.8002 125.627 57.5843 125.627 46.7085V46.4669C125.627 35.7157 133.044 25.6169 145.147 25.6169C157.368 25.6169 164.91 35.8328 164.91 46.7085V46.9502C164.91 57.7014 157.493 67.8002 145.389 67.8002ZM273.954 79.8989C280.756 73.9351 284.827 64.5008 284.827 50.4544V6.41699H260.069V51.3002C260.069 56.7748 258.615 60.9531 255.813 63.7555C253.013 66.5555 249.169 67.6793 245.019 67.6793C240.824 67.6793 236.975 66.439 234.189 63.5076C231.415 60.5887 229.969 56.2799 229.969 50.696V6.41699H205.211V51.0585C205.211 64.6822 209.161 73.9703 215.849 79.89C222.582 85.8496 232.419 88.6918 244.777 88.6918C257.145 88.6918 267.103 85.9058 273.954 79.8989ZM203.211 51.0585C203.211 79.0918 219.523 90.6918 244.777 90.6918C270.031 90.6918 286.827 79.3335 286.827 50.4544V4.41699H258.069V51.3002C258.069 61.571 252.631 65.6793 245.019 65.6793C237.406 65.6793 231.969 61.2085 231.969 50.696V4.41699H203.211V51.0585ZM136.168 119.417H107.893V204H136.168V119.417ZM134.168 202V121.417H109.893V202H134.168ZM231.861 184.698C232.21 184.129 232.549 183.555 232.878 182.975L209.557 169.804C209.482 169.938 209.407 170.071 209.332 170.203C205.861 176.271 201.412 180.438 193.607 180.438C184.303 180.438 177.778 172.704 177.778 161.709V161.467C177.778 151.317 184.061 142.979 193.607 142.979C200.572 142.979 204.891 146.41 207.975 151.505C208.315 152.067 208.641 152.65 208.953 153.25L232.274 139.596C225.145 126.667 212.578 117.604 193.97 117.604C168.716 117.604 149.02 136.454 149.02 161.709V161.95C149.02 188.171 169.441 205.813 192.882 205.813C212.938 205.813 224.637 196.467 231.861 184.698ZM230.119 183.714C226.809 189.09 222.567 193.874 217.014 197.421C210.887 201.334 203.052 203.813 192.882 203.813C170.461 203.813 151.02 186.984 151.02 161.95V161.709C151.02 137.609 169.77 119.604 193.97 119.604C210.98 119.604 222.608 127.451 229.546 138.875L209.701 150.495C208.228 148.055 206.441 145.888 204.183 144.235C201.34 142.155 197.869 140.979 193.607 140.979C182.613 140.979 175.778 150.591 175.778 161.467V161.709C175.778 167.593 177.526 172.758 180.676 176.487C183.846 180.24 188.36 182.438 193.607 182.438C197.994 182.438 201.525 181.23 204.442 179.09C206.799 177.36 208.678 175.078 210.282 172.511L230.119 183.714ZM369.571 203.813C394.648 203.813 413.85 185.053 413.85 161.709V161.467C413.85 138.123 394.89 119.604 369.813 119.604C344.736 119.604 325.534 138.364 325.534 161.709V161.95C325.534 185.294 344.494 203.813 369.571 203.813ZM369.813 182.8C357.592 182.8 350.05 172.584 350.05 161.709V161.467C350.05 150.716 357.468 140.617 369.571 140.617C381.792 140.617 389.334 150.833 389.334 161.709V161.95C389.334 172.701 381.916 182.8 369.813 182.8ZM191.427 46.7085C191.427 71.2376 171.247 90.8126 145.147 90.8126C119.048 90.8126 99.1101 71.4793 99.1101 46.9502V46.7085C99.1101 22.1794 119.289 2.60449 145.389 2.60449C171.489 2.60449 191.427 21.9378 191.427 46.4669V46.7085ZM127.627 46.7085C127.627 56.7377 134.514 65.8002 145.389 65.8002C156.143 65.8002 162.91 56.8585 162.91 46.9502V46.7085C162.91 36.6794 156.022 27.6169 145.147 27.6169C134.393 27.6169 127.627 36.5586 127.627 46.4669V46.7085ZM38.1083 44.6544H50.3124C57.0791 44.6544 61.1874 41.6336 61.1874 36.4377V36.1961C61.1874 30.7586 56.9583 28.1003 50.4333 28.1003H38.1083V44.6544ZM415.85 161.709C415.85 186.238 395.671 205.813 369.571 205.813C343.471 205.813 323.534 186.479 323.534 161.95V161.709C323.534 137.179 343.713 117.604 369.813 117.604C395.913 117.604 415.85 136.938 415.85 161.467V161.709ZM352.05 161.709C352.05 171.738 358.938 180.8 369.813 180.8C380.567 180.8 387.334 171.859 387.334 161.95V161.709C387.334 151.679 380.446 142.617 369.571 142.617C358.817 142.617 352.05 151.559 352.05 161.467V161.709ZM456.634 143.1H468.959C475.484 143.1 479.713 145.759 479.713 151.196V151.438C479.713 156.634 475.605 159.654 468.838 159.654H456.634V143.1Z" fill="black"/>
<path fill-rule="evenodd" clip-rule="evenodd" d="M7.83332 91.0001V2.41699H51.1582C66.4559 2.41699 76.5972 6.2443 83.0223 12.6694C88.5063 18.1534 91.3414 24.9614 91.3414 34.1419V34.3836C91.3414 46.7158 85.2781 55.5878 75.5936 60.9763L96.1561 91.0001H59.0235L43.0736 66.8335H40.1082V91.0001H7.83332ZM44.1499 64.8335L60.0999 89.0001H92.3623L72.6665 60.2418C73.2777 59.947 73.8752 59.6394 74.4585 59.3189C83.6768 54.2534 89.3414 45.9751 89.3414 34.3836V34.1419C89.3414 25.4419 86.6831 19.1586 81.6081 14.0836C75.6873 8.16281 66.1415 4.41699 51.1582 4.41699H9.83332V89.0001H38.1082V64.8335H44.1499ZM40.1082 30.1003V42.6544H50.3124C53.4323 42.6544 55.6752 41.9536 57.0874 40.8945C58.4267 39.89 59.1873 38.4446 59.1873 36.4377V36.1961C59.1873 34.0692 58.3992 32.6729 57.091 31.7339C55.6858 30.7254 53.4684 30.1003 50.4332 30.1003H40.1082ZM193.426 46.7085C193.426 72.4219 172.271 92.8126 145.147 92.8126C118.025 92.8126 97.11 72.6641 97.11 46.9502V46.7085C97.11 20.9952 118.266 0.604492 145.389 0.604492C172.512 0.604492 193.426 20.753 193.426 46.4669V46.7085ZM129.627 46.7085C129.627 55.8911 135.86 63.8002 145.389 63.8002C154.794 63.8002 160.91 56.0156 160.91 46.9502V46.7085C160.91 37.526 154.676 29.6169 145.147 29.6169C135.743 29.6169 129.627 37.4015 129.627 46.4669V46.7085ZM288.827 2.41699V50.4544C288.827 65.287 284.5 75.9714 276.591 82.9065C268.73 89.7986 257.663 92.6918 244.777 92.6918C231.881 92.6918 220.935 89.7339 213.198 82.8852C205.416 75.9967 201.21 65.4682 201.21 51.0585V2.41699H233.969V50.696C233.969 55.6246 235.241 58.8075 237.089 60.7521C238.925 62.6843 241.601 63.6793 245.019 63.6793C248.481 63.6793 251.162 62.749 252.984 60.9271C254.804 59.1077 256.069 56.0964 256.069 51.3002V2.41699H288.827ZM203.21 51.0585C203.21 79.0918 219.523 90.6918 244.777 90.6918C270.031 90.6918 286.827 79.3335 286.827 50.4544V4.41699H258.069V51.3002C258.069 61.571 252.631 65.6793 245.019 65.6793C237.406 65.6793 231.969 61.2085 231.969 50.696V4.41699H203.21V51.0585ZM320.203 91.0001V30.3419H295.311V2.41699H377.369V30.3419H352.478V91.0001H320.203ZM350.478 89.0001H322.203V28.3419H297.311V4.41699H375.369V28.3419H350.478V89.0001ZM384.592 91.0001V2.41699H460.729V29.6169H416.383V34.1961H457.708V58.6168H416.383V63.8002H461.333V91.0001H384.592ZM459.333 65.8002V89.0001H386.592V4.41699H458.729V27.6169H414.383V36.1961H455.708V56.6168H414.383V65.8002H459.333ZM36.6369 206.604L0.708984 117.417H36.7533L51.7624 160.789L66.7714 117.417H102.332L66.4045 206.604H36.6369ZM51.7624 166.904L35.3291 119.417H3.67084L37.9874 204.604H65.054L99.3706 119.417H68.1957L51.7624 166.904ZM105.893 206V117.417H138.168V206H105.893ZM136.168 204H107.893V119.417H136.168V204ZM235.606 182.219L234.617 183.962C230.935 190.454 225.986 196.437 219.167 200.792C212.335 205.156 203.738 207.813 192.882 207.813C168.42 207.813 147.02 189.358 147.02 161.95V161.709C147.02 135.3 167.661 115.604 193.97 115.604C213.351 115.604 226.566 125.103 234.025 138.63L234.966 140.337L208.149 156.039L207.178 154.173C205.692 151.314 203.965 149.032 201.821 147.463C199.709 145.918 197.078 144.979 193.607 144.979C185.51 144.979 179.778 152.043 179.778 161.467V161.709C179.778 166.819 181.293 171.019 183.731 173.906C186.15 176.769 189.551 178.438 193.607 178.438C197.196 178.438 199.887 177.471 202.076 175.865C204.305 174.229 206.129 171.845 207.81 168.83L208.79 167.074L235.606 182.219ZM232.875 182.973L232.878 182.975C232.549 183.555 232.21 184.129 231.861 184.698C224.637 196.467 212.938 205.813 192.882 205.813C169.441 205.813 149.02 188.171 149.02 161.95V161.709C149.02 136.454 168.716 117.604 193.97 117.604C212.578 117.604 225.144 126.667 232.274 139.596C232.274 139.596 232.273 139.596 232.274 139.596L208.953 153.25C208.953 153.25 208.953 153.25 208.953 153.25C208.641 152.65 208.315 152.067 207.975 151.505C204.89 146.41 200.572 142.979 193.607 142.979C184.061 142.979 177.778 151.317 177.778 161.467V161.709C177.778 172.704 184.303 180.438 193.607 180.438C201.412 180.438 205.861 176.271 209.331 170.204C209.407 170.072 209.482 169.938 209.557 169.804L232.875 182.973ZM262.736 206V145.342H237.845V117.417H319.903V145.342H295.011V206H262.736ZM293.011 204H264.736V143.342H239.845V119.417H317.903V143.342H293.011V204ZM417.85 161.709C417.85 187.422 396.694 207.813 369.571 207.813C342.449 207.813 321.534 187.664 321.534 161.95V161.709C321.534 135.995 342.69 115.604 369.813 115.604C396.935 115.604 417.85 135.753 417.85 161.467V161.709ZM354.05 161.709C354.05 170.891 360.284 178.8 369.813 178.8C379.218 178.8 385.334 171.016 385.334 161.95V161.709C385.334 152.526 379.1 144.617 369.571 144.617C360.166 144.617 354.05 152.401 354.05 161.467V161.709ZM426.359 206V117.417H469.684C484.982 117.417 495.123 121.244 501.548 127.669C507.032 133.153 509.867 139.961 509.867 149.142V149.384C509.867 161.716 503.804 170.588 494.119 175.976L514.682 206H477.549L461.599 181.833H458.634V206H426.359ZM462.676 179.833L478.626 204H510.888L491.192 175.242C491.804 174.947 492.401 174.639 492.984 174.319C502.203 169.253 507.867 160.975 507.867 149.384V149.142C507.867 140.442 505.209 134.159 500.134 129.084C494.213 123.163 484.667 119.417 469.684 119.417H428.359V204H456.634V179.833H462.676ZM458.634 145.1V157.654H468.838C471.958 157.654 474.201 156.954 475.613 155.894C476.953 154.89 477.713 153.445 477.713 151.438V151.196C477.713 149.069 476.925 147.673 475.617 146.734C474.212 145.725 471.994 145.1 468.959 145.1H458.634ZM539.634 206V174.575L506.25 117.417H542.605L555.9 142.899L569.306 117.417H605.305L571.909 174.215V206H539.634ZM569.909 173.671L601.809 119.417H570.514L555.893 147.209L541.393 119.417H509.735L541.634 174.034V204H569.909V173.671ZM38.1082 44.6544H50.3124C57.079 44.6544 61.1873 41.6336 61.1873 36.4377V36.1961C61.1873 30.7586 56.9582 28.1003 50.4332 28.1003H38.1082V44.6544ZM191.426 46.7085C191.426 71.2376 171.247 90.8126 145.147 90.8126C119.047 90.8126 99.11 71.4793 99.11 46.9502V46.7085C99.11 22.1794 119.289 2.60449 145.389 2.60449C171.489 2.60449 191.426 21.9378 191.426 46.4669V46.7085ZM127.627 46.7085C127.627 56.7377 134.514 65.8002 145.389 65.8002C156.143 65.8002 162.91 56.8585 162.91 46.9502V46.7085C162.91 36.6794 156.022 27.6169 145.147 27.6169C134.393 27.6169 127.627 36.5586 127.627 46.4669V46.7085ZM415.85 161.709C415.85 186.238 395.671 205.813 369.571 205.813C343.471 205.813 323.534 186.479 323.534 161.95V161.709C323.534 137.179 343.713 117.604 369.813 117.604C395.913 117.604 415.85 136.938 415.85 161.467V161.709ZM352.05 161.709C352.05 171.738 358.938 180.8 369.813 180.8C380.567 180.8 387.334 171.859 387.334 161.95V161.709C387.334 151.679 380.446 142.617 369.571 142.617C358.817 142.617 352.05 151.559 352.05 161.467V161.709ZM456.634 159.654H468.838C475.605 159.654 479.713 156.634 479.713 151.438V151.196C479.713 145.759 475.484 143.1 468.959 143.1H456.634V159.654Z" fill="black"/>
<path fill-rule="evenodd" clip-rule="evenodd" d="M76.4637 60.477C85.6399 55.0471 91.3414 46.3422 91.3414 34.3836V34.1419C91.3414 24.9614 88.5063 18.1534 83.0223 12.6694C76.5972 6.2443 66.4559 2.41699 51.1582 2.41699H7.83332V91.0001H40.1082V66.8335H43.0736L59.0235 91.0001H96.1561L75.5936 60.9763C75.887 60.8131 76.177 60.6467 76.4637 60.477ZM74.9956 60.1647C74.9771 60.1749 74.9586 60.1851 74.94 60.1953C74.6759 60.3404 74.409 60.4829 74.1395 60.6228L74.1485 60.636L74.9956 60.1647ZM72.6665 60.2418C72.9711 60.0949 73.2723 59.9448 73.5701 59.7915C73.8697 59.6372 74.1659 59.4796 74.4585 59.3189C83.6768 54.2534 89.3414 45.9751 89.3414 34.3836V34.1419C89.3414 25.4419 86.6831 19.1586 81.6081 14.0836C75.6873 8.16281 66.1415 4.41699 51.1582 4.41699H9.83332V89.0001H38.1082V64.8335H44.1499L60.0999 89.0001H92.3623L72.6665 60.2418ZM297.311 28.3419V4.41699H375.369V28.3419H350.478V89.0001H322.203V28.3419H297.311ZM455.708 36.1961V56.6168H414.383V65.8002H459.333V89.0001H386.592V4.41699H458.729V27.6169H414.383V36.1961H455.708ZM36.7533 117.417H0.708984L36.6369 206.604H66.4045L102.332 117.417H66.7714L51.7624 160.789L36.7533 117.417ZM35.3291 119.417L51.7624 166.904L68.1957 119.417H99.3706L65.054 204.604H37.9874L3.67084 119.417H35.3291ZM235.606 182.219L234.617 183.962C230.935 190.454 225.986 196.437 219.167 200.792C212.335 205.156 203.738 207.813 192.882 207.813C168.42 207.813 147.02 189.358 147.02 161.95V161.709C147.02 135.3 167.661 115.604 193.97 115.604C213.351 115.604 226.566 125.103 234.025 138.63L234.966 140.337L208.149 156.039L207.178 154.173C205.692 151.314 203.965 149.032 201.821 147.463C199.709 145.918 197.078 144.979 193.607 144.979C185.51 144.979 179.778 152.043 179.778 161.467V161.709C179.778 166.819 181.293 171.019 183.731 173.906C186.15 176.769 189.551 178.438 193.607 178.438C197.196 178.438 199.887 177.471 202.076 175.865C204.305 174.229 206.129 171.845 207.81 168.83L208.79 167.074L235.606 182.219ZM208.551 154.644L209.458 154.113L233.62 139.967L233.149 139.113C233.149 139.113 233.149 139.113 233.149 139.113L232.274 139.596C225.145 126.667 212.578 117.604 193.97 117.604C168.716 117.604 149.02 136.454 149.02 161.709V161.95C149.02 188.171 169.441 205.813 192.882 205.813C212.938 205.813 224.637 196.467 231.861 184.698C232.036 184.414 232.208 184.128 232.377 183.841C232.456 183.708 232.534 183.574 232.611 183.441C232.619 183.427 232.626 183.414 232.634 183.401C232.716 183.259 232.797 183.117 232.878 182.975L232.875 182.973L209.557 169.804C209.482 169.938 209.407 170.071 209.332 170.203C209.332 170.203 209.332 170.203 209.332 170.203C205.861 176.271 201.412 180.438 193.607 180.438C184.303 180.438 177.778 172.704 177.778 161.709V161.467C177.778 151.317 184.061 142.979 193.607 142.979C200.572 142.979 204.89 146.41 207.975 151.505C208.146 151.788 208.314 152.076 208.478 152.37C208.64 152.658 208.798 152.952 208.953 153.25L208.066 153.712L208.551 154.644ZM208.953 153.25L209.458 154.113L232.779 140.459L232.274 139.596L232.273 139.596L208.953 153.25ZM239.845 143.342V119.417H317.903V143.342H293.011V204H264.736V143.342H239.845ZM494.99 175.477C504.166 170.047 509.867 161.342 509.867 149.384V149.142C509.867 139.961 507.032 133.153 501.548 127.669C495.123 121.244 484.982 117.417 469.684 117.417H426.359V206H458.634V181.833H461.599L477.549 206H514.682L494.119 175.976C494.413 175.813 494.703 175.647 494.99 175.477ZM492.674 175.636L493.466 175.195C493.202 175.34 492.935 175.483 492.665 175.623L492.674 175.636ZM491.192 175.242C491.497 175.095 491.798 174.945 492.096 174.791C492.396 174.637 492.692 174.48 492.984 174.319C502.203 169.253 507.867 160.975 507.867 149.384V149.142C507.867 140.442 505.209 134.159 500.134 129.084C494.213 123.163 484.667 119.417 469.684 119.417H428.359V204H456.634V179.833H462.676L478.626 204H510.888L491.192 175.242ZM539.634 174.575V206H571.909V174.215L605.305 117.417H569.306L555.9 142.899L542.605 117.417H506.25L539.634 174.575ZM569.909 173.671V204H541.634V174.034L509.735 119.417H541.393L555.893 147.209L570.514 119.417H601.809L569.909 173.671ZM203.21 51.0585C203.21 79.0918 219.523 90.6918 244.777 90.6918C270.031 90.6918 286.827 79.3335 286.827 50.4544V4.41699H258.069V51.3002C258.069 61.571 252.631 65.6793 245.019 65.6793C237.406 65.6793 231.969 61.2085 231.969 50.696V4.41699H203.21V51.0585ZM288.827 2.41699V50.4544C288.827 65.287 284.5 75.9714 276.591 82.9065C268.73 89.7986 257.663 92.6918 244.777 92.6918C231.881 92.6918 220.935 89.7339 213.198 82.8852C205.416 75.9967 201.21 65.4682 201.21 51.0585V2.41699H233.969V50.696C233.969 55.6246 235.241 58.8075 237.089 60.7521C238.925 62.6843 241.601 63.6793 245.019 63.6793C248.481 63.6793 251.162 62.749 252.984 60.9271C254.804 59.1077 256.069 56.0964 256.069 51.3002V2.41699H288.827ZM320.203 91.0001V30.3419H295.311V2.41699H377.369V30.3419H352.478V91.0001H320.203ZM384.592 91.0001V2.41699H460.729V29.6169H416.383V34.1961H457.708V58.6168H416.383V63.8002H461.333V91.0001H384.592ZM105.893 206V117.417H138.168V206H105.893ZM136.168 119.417V204H107.893V119.417H136.168ZM262.736 206V145.342H237.845V117.417H319.903V145.342H295.011V206H262.736ZM40.1082 30.1003H50.4332C53.4684 30.1003 55.6858 30.7254 57.091 31.7339C58.3992 32.6729 59.1873 34.0692 59.1873 36.1961V36.4377C59.1873 38.4446 58.4267 39.89 57.0874 40.8945C55.6752 41.9536 53.4323 42.6544 50.3124 42.6544H40.1082V30.1003ZM145.147 92.8126C172.271 92.8126 193.426 72.4219 193.426 46.7085V46.4669C193.426 20.753 172.512 0.604492 145.389 0.604492C118.266 0.604492 97.11 20.9952 97.11 46.7085V46.9502C97.11 72.6641 118.025 92.8126 145.147 92.8126ZM145.389 63.8002C135.86 63.8002 129.627 55.8911 129.627 46.7085V46.4669C129.627 37.4015 135.743 29.6169 145.147 29.6169C154.676 29.6169 160.91 37.526 160.91 46.7085V46.9502C160.91 56.0156 154.794 63.8002 145.389 63.8002ZM369.571 207.813C396.694 207.813 417.85 187.422 417.85 161.709V161.467C417.85 135.753 396.935 115.604 369.813 115.604C342.69 115.604 321.534 135.995 321.534 161.709V161.95C321.534 187.664 342.449 207.813 369.571 207.813ZM369.813 178.8C360.284 178.8 354.05 170.891 354.05 161.709V161.467C354.05 152.401 360.166 144.617 369.571 144.617C379.1 144.617 385.334 152.526 385.334 161.709V161.95C385.334 171.016 379.218 178.8 369.813 178.8ZM458.634 145.1H468.959C471.994 145.1 474.212 145.725 475.617 146.734C476.925 147.673 477.713 149.069 477.713 151.196V151.438C477.713 153.445 476.953 154.89 475.613 155.894C474.201 156.954 471.958 157.654 468.838 157.654H458.634V145.1ZM38.1082 44.6544V28.1003H50.4332C56.9582 28.1003 61.1873 30.7586 61.1873 36.1961V36.4377C61.1873 41.6336 57.079 44.6544 50.3124 44.6544H38.1082ZM145.147 90.8126C171.247 90.8126 191.426 71.2376 191.426 46.7085V46.4669C191.426 21.9378 171.489 2.60449 145.389 2.60449C119.289 2.60449 99.11 22.1794 99.11 46.7085V46.9502C99.11 71.4793 119.047 90.8126 145.147 90.8126ZM145.389 65.8002C134.514 65.8002 127.627 56.7377 127.627 46.7085V46.4669C127.627 36.5586 134.393 27.6169 145.147 27.6169C156.022 27.6169 162.91 36.6794 162.91 46.7085V46.9502C162.91 56.8585 156.143 65.8002 145.389 65.8002ZM369.571 205.813C395.671 205.813 415.85 186.238 415.85 161.709V161.467C415.85 136.938 395.913 117.604 369.813 117.604C343.713 117.604 323.534 137.179 323.534 161.709V161.95C323.534 186.479 343.471 205.813 369.571 205.813ZM369.813 180.8C358.938 180.8 352.05 171.738 352.05 161.709V161.467C352.05 151.559 358.817 142.617 369.571 142.617C380.446 142.617 387.334 151.679 387.334 161.709V161.95C387.334 171.859 380.567 180.8 369.813 180.8ZM456.634 159.654V143.1H468.959C475.484 143.1 479.713 145.759 479.713 151.196V151.438C479.713 156.634 475.605 159.654 468.838 159.654H456.634Z" fill="white"/>
<path d="M496.408 62.8458C495.764 63.7319 494.797 65.0611 493.508 66.8333C492.3 68.6055 491.052 70.4583 489.763 72.3916C488.474 74.2444 487.306 75.9361 486.258 77.4666C485.211 78.9972 484.567 79.9638 484.325 80.3666C484.325 80.3666 484.849 80.0444 485.896 79.3999C486.943 78.7555 488.232 77.9499 489.763 76.9833C491.293 75.936 492.985 74.8083 494.838 73.5999C496.69 72.3916 498.422 71.2638 500.033 70.2166C501.725 69.0888 503.215 68.1222 504.504 67.3166C505.793 66.4305 506.639 65.8666 507.042 65.625C506.8 66.0277 505.995 66.8333 504.625 68.0416C503.336 69.1694 501.725 70.5791 499.792 72.2708C497.939 73.8819 495.925 75.6138 493.75 77.4666C491.575 79.2388 489.481 80.9305 487.467 82.5416C485.533 84.0721 483.842 85.4013 482.392 86.5291C481.022 87.6569 480.177 88.3416 479.854 88.5832L478.767 89.6707C478.606 89.8318 478.284 90.0332 477.8 90.2749C477.397 90.436 476.874 90.5971 476.229 90.7582C475.665 90.8388 475.102 90.9193 474.538 90.9999C473.974 91.0805 473.531 91.0402 473.209 90.8791C472.806 90.718 472.443 90.4763 472.121 90.1541C471.879 89.8318 471.597 89.4694 471.275 89.0666C469.986 87.536 469.946 85.8846 471.154 84.1124L495.321 47.8625C493.388 47.8625 491.817 47.8625 490.608 47.8625C489.4 47.8625 488.313 47.8222 487.346 47.7417C486.46 47.6611 485.574 47.5806 484.688 47.5C483.882 47.4195 482.956 47.3792 481.908 47.3792C481.506 47.3792 481.143 47.2583 480.821 47.0167C480.499 46.775 480.177 46.5736 479.854 46.4125C479.371 46.0903 478.847 45.7681 478.284 45.4459C477.8 45.1236 477.438 44.7611 477.196 44.3584C476.471 43.2306 476.068 42.1431 475.988 41.0959C475.988 40.8542 476.149 40.6125 476.471 40.3709C476.874 40.0486 477.236 39.8875 477.559 39.8875C478.203 39.807 479.532 39.7264 481.546 39.6459C483.64 39.5653 485.896 39.4848 488.313 39.4042C490.81 39.3237 493.227 39.2834 495.563 39.2834C497.979 39.2028 499.792 39.2028 501 39.2834C502.772 36.625 504.504 34.0876 506.196 31.6709C507.968 29.1737 509.499 26.9987 510.788 25.1459C512.157 23.2126 513.245 21.682 514.05 20.5543C514.936 19.3459 515.379 18.7418 515.379 18.7418C515.621 18.5806 515.903 18.3793 516.225 18.1376C516.547 17.8959 516.789 17.8154 516.95 17.8959C518.803 18.3793 520.374 19.0237 521.663 19.8293C522.79 20.3931 523.354 21.1584 523.354 22.1251C523.354 23.0112 522.871 23.9376 521.904 24.9042C521.663 25.2265 521.179 25.8709 520.454 26.8376C519.81 27.8042 519.085 28.8515 518.279 29.9792C517.554 31.107 516.829 32.1945 516.104 33.2417C515.379 34.2084 514.896 34.9334 514.654 35.4167C514.493 35.7389 514.292 36.0612 514.05 36.3834C513.889 36.7056 513.647 37.0681 513.325 37.4709C513.083 37.8737 512.801 38.3167 512.479 38.8L520.454 38.4375L522.992 38.1959C523.233 38.1959 523.475 38.1959 523.717 38.1959C524.039 38.1959 524.281 38.2764 524.442 38.4375C525.328 39.082 526.214 39.6861 527.1 40.25C528.067 40.8139 528.953 41.4584 529.758 42.1834C529.919 42.425 530.081 42.8278 530.242 43.3917C530.403 43.9556 530.403 44.4389 530.242 44.8417C530.081 45.2445 529.839 45.6472 529.517 46.05C529.194 46.4528 528.832 46.6945 528.429 46.775C527.543 46.8556 526.738 46.9361 526.013 47.0167C525.368 47.0167 524.321 47.057 522.871 47.1375C521.501 47.1375 519.568 47.1778 517.071 47.2584C514.574 47.2584 511.15 47.3389 506.8 47.5C504.706 50.6417 502.651 53.7028 500.638 56.6833C498.704 59.5833 497.295 61.6375 496.408 62.8458Z" fill="white"/>
<path d="M508.066 90.3957C504.844 89.7513 502.347 88.1402 500.574 85.5624C500.413 85.2402 500.252 84.8777 500.091 84.4749C499.93 84.0721 499.769 83.6694 499.608 83.2666C499.447 81.4138 500.131 79.3999 501.662 77.2249C503.192 74.9694 505.005 72.7944 507.099 70.7C509.194 68.6055 511.288 66.7125 513.383 65.0208C515.558 63.3291 517.128 62.1208 518.095 61.3958C518.659 60.9125 519.545 60.3889 520.753 59.825C521.962 59.1805 523.291 58.6167 524.741 58.1333C526.272 57.65 527.883 57.2472 529.574 56.925C531.347 56.6028 533.038 56.5222 534.649 56.6833C535.858 56.925 536.583 57.5292 536.824 58.4958C537.146 59.3819 537.549 60.268 538.033 61.1541C538.516 61.9597 539.684 62.4833 541.537 62.725C543.39 62.8861 545.363 62.9666 547.458 62.9666C549.552 62.8861 551.445 62.7653 553.137 62.6041C554.909 62.3625 555.916 62.2416 556.158 62.2416C554.144 62.8055 552.251 63.3291 550.478 63.8125C548.948 64.2152 547.458 64.618 546.008 65.0208C544.558 65.4236 543.51 65.7055 542.866 65.8666C542.705 65.8666 542.544 65.9875 542.383 66.2291C542.302 66.4708 542.221 66.6722 542.141 66.8333C540.61 69.1694 538.878 71.4249 536.945 73.5999C535.012 75.7749 533.078 77.7485 531.145 79.5208C529.212 81.2124 527.359 82.7027 525.587 83.9916C523.895 85.2805 522.526 86.2069 521.478 86.7707C520.512 87.3346 519.585 87.9388 518.699 88.5832C517.813 89.1471 516.847 89.6305 515.799 90.0332C514.591 90.5166 513.342 90.7985 512.053 90.8791C510.765 90.8791 509.435 90.718 508.066 90.3957ZM531.508 64.2958C530.702 63.5708 529.494 63.45 527.883 63.9333C526.352 64.3361 524.66 65.1014 522.808 66.2291C520.955 67.3569 519.102 68.7263 517.249 70.3375C515.397 71.9486 513.785 73.5597 512.416 75.1708C511.127 76.7819 510.201 78.2722 509.637 79.6416C509.073 80.9305 509.194 81.8971 509.999 82.5416C510.402 82.8638 511.328 82.7833 512.778 82.2999C514.309 81.736 516.001 80.9305 517.853 79.8833C519.787 78.7555 521.72 77.4666 523.653 76.0166C525.667 74.5666 527.399 73.1166 528.849 71.6666C530.299 70.2166 531.306 68.8472 531.87 67.5583C532.515 66.1889 532.394 65.1014 531.508 64.2958Z" fill="white"/>
<defs>
<linearGradient id="paint0_linear_1607_12455" x1="312" y1="-5" x2="312" y2="232" gradientUnits="userSpaceOnUse">
<stop stop-color="#F89D0D"/>
<stop offset="1" stop-color="#D53915"/>
</linearGradient>
<linearGradient id="paint1_linear_1607_12455" x1="312" y1="-5" x2="312" y2="232" gradientUnits="userSpaceOnUse">
<stop stop-color="#F89D0D"/>
<stop offset="1" stop-color="#D53915"/>
</linearGradient>
<linearGradient id="paint2_linear_1607_12455" x1="312" y1="-5" x2="312" y2="232" gradientUnits="userSpaceOnUse">
<stop stop-color="#F89D0D"/>
<stop offset="1" stop-color="#D53915"/>
</linearGradient>
<linearGradient id="paint3_linear_1607_12455" x1="312" y1="-5" x2="312" y2="232" gradientUnits="userSpaceOnUse">
<stop stop-color="#F89D0D"/>
<stop offset="1" stop-color="#D53915"/>
</linearGradient>
<linearGradient id="paint4_linear_1607_12455" x1="312" y1="-5" x2="312" y2="232" gradientUnits="userSpaceOnUse">
<stop stop-color="#F89D0D"/>
<stop offset="1" stop-color="#D53915"/>
</linearGradient>
<linearGradient id="paint5_linear_1607_12455" x1="312" y1="-5" x2="312" y2="232" gradientUnits="userSpaceOnUse">
<stop stop-color="#F89D0D"/>
<stop offset="1" stop-color="#D53915"/>
</linearGradient>
<linearGradient id="paint6_linear_1607_12455" x1="312" y1="-5" x2="312" y2="232" gradientUnits="userSpaceOnUse">
<stop stop-color="#F89D0D"/>
<stop offset="1" stop-color="#D53915"/>
</linearGradient>
<linearGradient id="paint7_linear_1607_12455" x1="312" y1="-5" x2="312" y2="232" gradientUnits="userSpaceOnUse">
<stop stop-color="#F89D0D"/>
<stop offset="1" stop-color="#D53915"/>
</linearGradient>
<linearGradient id="paint8_linear_1607_12455" x1="312" y1="-5" x2="312" y2="232" gradientUnits="userSpaceOnUse">
<stop stop-color="#F89D0D"/>
<stop offset="1" stop-color="#D53915"/>
</linearGradient>
<linearGradient id="paint9_linear_1607_12455" x1="312" y1="-5" x2="312" y2="232" gradientUnits="userSpaceOnUse">
<stop stop-color="#F89D0D"/>
<stop offset="1" stop-color="#D53915"/>
</linearGradient>
<linearGradient id="paint10_linear_1607_12455" x1="312" y1="-5" x2="312" y2="232" gradientUnits="userSpaceOnUse">
<stop stop-color="#F89D0D"/>
<stop offset="1" stop-color="#D53915"/>
</linearGradient>
<linearGradient id="paint11_linear_1607_12455" x1="312" y1="-5" x2="312" y2="232" gradientUnits="userSpaceOnUse">
<stop stop-color="#F89D0D"/>
<stop offset="1" stop-color="#D53915"/>
</linearGradient>
</defs>
</svg>
